<svg width="88" height="57" viewBox="0 0 88 57" fill="none" xmlns="http://www.w3.org/2000/svg">
<g filter="url(#filter0_di)">
<path d="M5.56425 47.064L14.5883 2.264H20.4123L29.3083 47.064H23.3563L21.6283 38.68H13.1163L11.5163 47.064H5.56425ZM14.2683 32.792H20.6042L17.5323 16.856L14.2683 32.792Z" fill="#0F1636"/>
<path d="M45 1.5L59.875 38.625L74.75 1.5H82.5312V47H76.5312V29.2812L77.0938 10.1562L62.1562 47H57.5625L42.6562 10.25L43.25 29.2812V47H37.25V1.5H45Z" fill="#F9057C"/>
<path d="M5.56425 47.064L4.58394 46.8665L4.34274 48.064H5.56425V47.064ZM14.5883 2.264V1.264H13.7696L13.6079 2.06653L14.5883 2.264ZM20.4123 2.264L21.3931 2.06923L21.2332 1.264H20.4123V2.264ZM29.3083 47.064V48.064H30.5263L30.2891 46.8692L29.3083 47.064ZM23.3563 47.064L22.3768 47.2659L22.5413 48.064H23.3563V47.064ZM21.6283 38.68L22.6077 38.4781L22.4432 37.68H21.6283V38.68ZM13.1163 38.68V37.68H12.289L12.134 38.4925L13.1163 38.68ZM11.5163 47.064V48.064H12.3435L12.4985 47.2515L11.5163 47.064ZM14.2683 32.792L13.2886 32.5913L13.0427 33.792H14.2683V32.792ZM20.6042 32.792V33.792H21.8154L21.5862 32.6027L20.6042 32.792ZM17.5323 16.856L18.5142 16.6667L16.5526 16.6553L17.5323 16.856ZM6.54456 47.2615L15.5686 2.46146L13.6079 2.06653L4.58394 46.8665L6.54456 47.2615ZM14.5883 3.264H20.4123V1.264H14.5883V3.264ZM19.4314 2.45876L28.3274 47.2588L30.2891 46.8692L21.3931 2.06923L19.4314 2.45876ZM29.3083 46.064H23.3563V48.064H29.3083V46.064ZM24.3357 46.8621L22.6077 38.4781L20.6488 38.8819L22.3768 47.2659L24.3357 46.8621ZM21.6283 37.68H13.1163V39.68H21.6283V37.68ZM12.134 38.4925L10.534 46.8765L12.4985 47.2515L14.0985 38.8675L12.134 38.4925ZM11.5163 46.064H5.56425V48.064H11.5163V46.064ZM14.2683 33.792H20.6042V31.792H14.2683V33.792ZM21.5862 32.6027L18.5142 16.6667L16.5503 17.0453L19.6223 32.9813L21.5862 32.6027ZM16.5526 16.6553L13.2886 32.5913L15.2479 32.9927L18.5119 17.0567L16.5526 16.6553ZM45 1.5L45.9283 1.12807L45.6766 0.5H45V1.5ZM59.875 38.625L58.9467 38.9969L59.875 41.3137L60.8033 38.9969L59.875 38.625ZM74.75 1.5V0.5H74.0734L73.8217 1.12807L74.75 1.5ZM82.5312 1.5H83.5312V0.5H82.5312V1.5ZM82.5312 47V48H83.5312V47H82.5312ZM76.5312 47H75.5312V48H76.5312V47ZM76.5312 29.2812L75.5317 29.2519L75.5312 29.2665V29.2812H76.5312ZM77.0938 10.1562L78.0933 10.1856L76.167 9.78053L77.0938 10.1562ZM62.1562 47V48H62.8299L63.083 47.3757L62.1562 47ZM57.5625 47L56.6358 47.3759L56.889 48H57.5625V47ZM42.6562 10.25L43.5829 9.87413L41.6567 10.2812L42.6562 10.25ZM43.25 29.2812H44.25V29.2657L44.2495 29.2501L43.25 29.2812ZM43.25 47V48H44.25V47H43.25ZM37.25 47H36.25V48H37.25V47ZM37.25 1.5V0.5H36.25V1.5H37.25ZM44.0717 1.87193L58.9467 38.9969L60.8033 38.2531L45.9283 1.12807L44.0717 1.87193ZM60.8033 38.9969L75.6783 1.87193L73.8217 1.12807L58.9467 38.2531L60.8033 38.9969ZM74.75 2.5H82.5312V0.5H74.75V2.5ZM81.5312 1.5V47H83.5312V1.5H81.5312ZM82.5312 46H76.5312V48H82.5312V46ZM77.5312 47V29.2812H75.5312V47H77.5312ZM77.5308 29.3106L78.0933 10.1856L76.0942 10.1269L75.5317 29.2519L77.5308 29.3106ZM76.167 9.78053L61.2295 46.6243L63.083 47.3757L78.0205 10.532L76.167 9.78053ZM62.1562 46H57.5625V48H62.1562V46ZM58.4892 46.6241L43.5829 9.87413L41.7296 10.6259L56.6358 47.3759L58.4892 46.6241ZM41.6567 10.2812L42.2505 29.3124L44.2495 29.2501L43.6558 10.2188L41.6567 10.2812ZM42.25 29.2812V47H44.25V29.2812H42.25ZM43.25 46H37.25V48H43.25V46ZM38.25 47V1.5H36.25V47H38.25ZM37.25 2.5H45V0.5H37.25V2.5Z" fill="#F5F5F5" fill-opacity="0.25"/>
</g>
<defs>
<filter id="filter0_di" x="0.342743" y="0.5" width="87.1885" height="55.564" filterUnits="userSpaceOnUse" color-interpolation-filters="sRGB">
<feFlood flood-opacity="0" result="BackgroundImageFix"/>
<feColorMatrix in="SourceAlpha" type="matrix" values="0 0 0 0 0 0 0 0 0 0 0 0 0 0 0 0 0 0 127 0"/>
<feOffset dy="4"/>
<feGaussianBlur stdDeviation="2"/>
<feColorMatrix type="matrix" values="0 0 0 0 0 0 0 0 0 0 0 0 0 0 0 0 0 0 0.25 0"/>
<feBlend mode="normal" in2="BackgroundImageFix" result="effect1_dropShadow"/>
<feBlend mode="normal" in="SourceGraphic" in2="effect1_dropShadow" result="shape"/>
<feColorMatrix in="SourceAlpha" type="matrix" values="0 0 0 0 0 0 0 0 0 0 0 0 0 0 0 0 0 0 127 0" result="hardAlpha"/>
<feOffset dy="4"/>
<feGaussianBlur stdDeviation="2"/>
<feComposite in2="hardAlpha" operator="arithmetic" k2="-1" k3="1"/>
<feColorMatrix type="matrix" values="0 0 0 0 0 0 0 0 0 0 0 0 0 0 0 0 0 0 0.25 0"/>
<feBlend mode="normal" in2="shape" result="effect2_innerShadow"/>
</filter>
</defs>
</svg>
