<svg width="136" height="49" viewBox="0 0 136 49" fill="none" xmlns="http://www.w3.org/2000/svg">
<g filter="url(#filter0_i)">
<path d="M1.408 47.064L10.432 2.264H16.256L25.152 47.064H19.2L17.472 38.68H8.96L7.36 47.064H1.408ZM10.112 32.792H16.448L13.376 16.856L10.112 32.792ZM32.3125 43.9688C32.3125 42.9688 32.6042 42.1354 33.1875 41.4688C33.7917 40.8021 34.6875 40.4688 35.875 40.4688C37.0625 40.4688 37.9583 40.8021 38.5625 41.4688C39.1875 42.1354 39.5 42.9688 39.5 43.9688C39.5 44.9271 39.1875 45.7292 38.5625 46.375C37.9583 47.0208 37.0625 47.3438 35.875 47.3438C34.6875 47.3438 33.7917 47.0208 33.1875 46.375C32.6042 45.7292 32.3125 44.9271 32.3125 43.9688Z" fill="#F5F5F5"/>
<path d="M57.7188 1.5L72.5938 38.625L87.4688 1.5H95.25V47H89.25V29.2812L89.8125 10.1562L74.875 47H70.2812L55.375 10.25L55.9688 29.2812V47H49.9688V1.5H57.7188ZM131.562 25.9688H111.844V42.0938H134.75V47H105.844V1.5H134.438V6.4375H111.844V21.0625H131.562V25.9688Z" fill="#F9057C"/>
</g>
<path d="M1.408 47.064L0.42769 46.8665L0.186487 48.064H1.408V47.064ZM10.432 2.264V1.264H9.61334L9.45169 2.06653L10.432 2.264ZM16.256 2.264L17.2368 2.06923L17.077 1.264H16.256V2.264ZM25.152 47.064V48.064H26.3701L26.1328 46.8692L25.152 47.064ZM19.2 47.064L18.2206 47.2659L18.3851 48.064H19.2V47.064ZM17.472 38.68L18.4514 38.4781L18.2869 37.68H17.472V38.68ZM8.96 38.68V37.68H8.13279L7.97773 38.4925L8.96 38.68ZM7.36 47.064V48.064H8.18721L8.34227 47.2515L7.36 47.064ZM10.112 32.792L9.13234 32.5913L8.88642 33.792H10.112V32.792ZM16.448 32.792V33.792H17.6592L17.4299 32.6027L16.448 32.792ZM13.376 16.856L14.3579 16.6667L12.3963 16.6553L13.376 16.856ZM2.38831 47.2615L11.4123 2.46146L9.45169 2.06653L0.42769 46.8665L2.38831 47.2615ZM10.432 3.264H16.256V1.264H10.432V3.264ZM15.2752 2.45876L24.1712 47.2588L26.1328 46.8692L17.2368 2.06923L15.2752 2.45876ZM25.152 46.064H19.2V48.064H25.152V46.064ZM20.1794 46.8621L18.4514 38.4781L16.4926 38.8819L18.2206 47.2659L20.1794 46.8621ZM17.472 37.68H8.96V39.68H17.472V37.68ZM7.97773 38.4925L6.37773 46.8765L8.34227 47.2515L9.94227 38.8675L7.97773 38.4925ZM7.36 46.064H1.408V48.064H7.36V46.064ZM10.112 33.792H16.448V31.792H10.112V33.792ZM17.4299 32.6027L14.3579 16.6667L12.3941 17.0453L15.4661 32.9813L17.4299 32.6027ZM12.3963 16.6553L9.13234 32.5913L11.0917 32.9927L14.3557 17.0567L12.3963 16.6553ZM33.1875 41.4688L32.4465 40.7972L32.4407 40.8037L32.4349 40.8102L33.1875 41.4688ZM38.5625 41.4688L37.8215 42.1403L37.8272 42.1465L37.833 42.1527L38.5625 41.4688ZM38.5625 46.375L37.8439 45.6796L37.838 45.6857L37.8322 45.6918L38.5625 46.375ZM33.1875 46.375L32.4454 47.0453L32.4513 47.0518L32.4572 47.0582L33.1875 46.375ZM33.3125 43.9688C33.3125 43.1776 33.5369 42.588 33.9401 42.1273L32.4349 40.8102C31.6714 41.6828 31.3125 42.7599 31.3125 43.9688H33.3125ZM33.9285 42.1403C34.2875 41.7442 34.8747 41.4688 35.875 41.4688V39.4688C34.5003 39.4688 33.2959 39.86 32.4465 40.7972L33.9285 42.1403ZM35.875 41.4688C36.8753 41.4688 37.4625 41.7442 37.8215 42.1403L39.3035 40.7972C38.4541 39.86 37.2497 39.4688 35.875 39.4688V41.4688ZM37.833 42.1527C38.2671 42.6158 38.5 43.1967 38.5 43.9688H40.5C40.5 42.7408 40.1079 41.655 39.292 40.7848L37.833 42.1527ZM38.5 43.9688C38.5 44.6865 38.2756 45.2335 37.8439 45.6796L39.2811 47.0704C40.0994 46.2249 40.5 45.1676 40.5 43.9688H38.5ZM37.8322 45.6918C37.4755 46.0732 36.8845 46.3438 35.875 46.3438V48.3438C37.2405 48.3438 38.4412 47.9684 39.2928 47.0582L37.8322 45.6918ZM35.875 46.3438C34.8655 46.3438 34.2745 46.0732 33.9178 45.6918L32.4572 47.0582C33.3088 47.9684 34.5095 48.3438 35.875 48.3438V46.3438ZM33.9296 45.7047C33.5296 45.2618 33.3125 44.7065 33.3125 43.9688H31.3125C31.3125 45.1476 31.6788 46.1965 32.4454 47.0453L33.9296 45.7047ZM57.7188 1.5L58.647 1.12807L58.3954 0.5H57.7188V1.5ZM72.5938 38.625L71.6655 38.9969L72.5938 41.3137L73.522 38.9969L72.5938 38.625ZM87.4688 1.5V0.5H86.7921L86.5405 1.12807L87.4688 1.5ZM95.25 1.5H96.25V0.5H95.25V1.5ZM95.25 47V48H96.25V47H95.25ZM89.25 47H88.25V48H89.25V47ZM89.25 29.2812L88.2504 29.2519L88.25 29.2665V29.2812H89.25ZM89.8125 10.1562L90.8121 10.1856L88.8858 9.78053L89.8125 10.1562ZM74.875 47V48H75.5486L75.8017 47.3757L74.875 47ZM70.2812 47L69.3546 47.3759L69.6077 48H70.2812V47ZM55.375 10.25L56.3017 9.87413L54.3755 10.2812L55.375 10.25ZM55.9688 29.2812H56.9688V29.2657L56.9683 29.2501L55.9688 29.2812ZM55.9688 47V48H56.9688V47H55.9688ZM49.9688 47H48.9688V48H49.9688V47ZM49.9688 1.5V0.5H48.9688V1.5H49.9688ZM56.7905 1.87193L71.6655 38.9969L73.522 38.2531L58.647 1.12807L56.7905 1.87193ZM73.522 38.9969L88.397 1.87193L86.5405 1.12807L71.6655 38.2531L73.522 38.9969ZM87.4688 2.5H95.25V0.5H87.4688V2.5ZM94.25 1.5V47H96.25V1.5H94.25ZM95.25 46H89.25V48H95.25V46ZM90.25 47V29.2812H88.25V47H90.25ZM90.2496 29.3106L90.8121 10.1856L88.8129 10.1269L88.2504 29.2519L90.2496 29.3106ZM88.8858 9.78053L73.9483 46.6243L75.8017 47.3757L90.7392 10.532L88.8858 9.78053ZM74.875 46H70.2812V48H74.875V46ZM71.2079 46.6241L56.3017 9.87413L54.4483 10.6259L69.3546 47.3759L71.2079 46.6241ZM54.3755 10.2812L54.9692 29.3124L56.9683 29.2501L56.3745 10.2188L54.3755 10.2812ZM54.9688 29.2812V47H56.9688V29.2812H54.9688ZM55.9688 46H49.9688V48H55.9688V46ZM50.9688 47V1.5H48.9688V47H50.9688ZM49.9688 2.5H57.7188V0.5H49.9688V2.5ZM131.562 25.9688V26.9688H132.562V25.9688H131.562ZM111.844 25.9688V24.9688H110.844V25.9688H111.844ZM111.844 42.0938H110.844V43.0938H111.844V42.0938ZM134.75 42.0938H135.75V41.0938H134.75V42.0938ZM134.75 47V48H135.75V47H134.75ZM105.844 47H104.844V48H105.844V47ZM105.844 1.5V0.5H104.844V1.5H105.844ZM134.438 1.5H135.438V0.5H134.438V1.5ZM134.438 6.4375V7.4375H135.438V6.4375H134.438ZM111.844 6.4375V5.4375H110.844V6.4375H111.844ZM111.844 21.0625H110.844V22.0625H111.844V21.0625ZM131.562 21.0625H132.562V20.0625H131.562V21.0625ZM131.562 24.9688H111.844V26.9688H131.562V24.9688ZM110.844 25.9688V42.0938H112.844V25.9688H110.844ZM111.844 43.0938H134.75V41.0938H111.844V43.0938ZM133.75 42.0938V47H135.75V42.0938H133.75ZM134.75 46H105.844V48H134.75V46ZM106.844 47V1.5H104.844V47H106.844ZM105.844 2.5H134.438V0.5H105.844V2.5ZM133.438 1.5V6.4375H135.438V1.5H133.438ZM134.438 5.4375H111.844V7.4375H134.438V5.4375ZM110.844 6.4375V21.0625H112.844V6.4375H110.844ZM111.844 22.0625H131.562V20.0625H111.844V22.0625ZM130.562 21.0625V25.9688H132.562V21.0625H130.562Z" fill="#0F1636" fill-opacity="0.15"/>
<defs>
<filter id="filter0_i" x="0.186493" y="0.5" width="135.564" height="51.8438" filterUnits="userSpaceOnUse" color-interpolation-filters="sRGB">
<feFlood flood-opacity="0" result="BackgroundImageFix"/>
<feBlend mode="normal" in="SourceGraphic" in2="BackgroundImageFix" result="shape"/>
<feColorMatrix in="SourceAlpha" type="matrix" values="0 0 0 0 0 0 0 0 0 0 0 0 0 0 0 0 0 0 127 0" result="hardAlpha"/>
<feOffset dy="4"/>
<feGaussianBlur stdDeviation="2"/>
<feComposite in2="hardAlpha" operator="arithmetic" k2="-1" k3="1"/>
<feColorMatrix type="matrix" values="0 0 0 0 0 0 0 0 0 0 0 0 0 0 0 0 0 0 0.25 0"/>
<feBlend mode="normal" in2="shape" result="effect1_innerShadow"/>
</filter>
</defs>
</svg>
