<svg width="144" height="57" viewBox="0 0 144 57" fill="none" xmlns="http://www.w3.org/2000/svg">
<g filter="url(#filter0_di)">
<path d="M5.408 47.064L14.432 2.264H20.256L29.152 47.064H23.2L21.472 38.68H12.96L11.36 47.064H5.408ZM14.112 32.792H20.448L17.376 16.856L14.112 32.792Z" fill="#0F1636"/>
<path d="M36.3125 43.9688C36.3125 42.9688 36.6042 42.1354 37.1875 41.4688C37.7917 40.8021 38.6875 40.4688 39.875 40.4688C41.0625 40.4688 41.9583 40.8021 42.5625 41.4688C43.1875 42.1354 43.5 42.9688 43.5 43.9688C43.5 44.9271 43.1875 45.7292 42.5625 46.375C41.9583 47.0208 41.0625 47.3438 39.875 47.3438C38.6875 47.3438 37.7917 47.0208 37.1875 46.375C36.6042 45.7292 36.3125 44.9271 36.3125 43.9688Z" fill="black"/>
<path d="M61.7188 1.5L76.5938 38.625L91.4688 1.5H99.25V47H93.25V29.2812L93.8125 10.1562L78.875 47H74.2812L59.375 10.25L59.9688 29.2812V47H53.9688V1.5H61.7188ZM135.562 25.9688H115.844V42.0938H138.75V47H109.844V1.5H138.438V6.4375H115.844V21.0625H135.562V25.9688Z" fill="#F9057C"/>
<path d="M5.408 47.064L4.42769 46.8665L4.18649 48.064H5.408V47.064ZM14.432 2.264V1.264H13.6133L13.4517 2.06653L14.432 2.264ZM20.256 2.264L21.2368 2.06923L21.077 1.264H20.256V2.264ZM29.152 47.064V48.064H30.3701L30.1328 46.8692L29.152 47.064ZM23.2 47.064L22.2206 47.2659L22.3851 48.064H23.2V47.064ZM21.472 38.68L22.4514 38.4781L22.2869 37.68H21.472V38.68ZM12.96 38.68V37.68H12.1328L11.9777 38.4925L12.96 38.68ZM11.36 47.064V48.064H12.1872L12.3423 47.2515L11.36 47.064ZM14.112 32.792L13.1323 32.5913L12.8864 33.792H14.112V32.792ZM20.448 32.792V33.792H21.6592L21.4299 32.6027L20.448 32.792ZM17.376 16.856L18.3579 16.6667L16.3963 16.6553L17.376 16.856ZM6.38831 47.2615L15.4123 2.46146L13.4517 2.06653L4.42769 46.8665L6.38831 47.2615ZM14.432 3.264H20.256V1.264H14.432V3.264ZM19.2752 2.45876L28.1712 47.2588L30.1328 46.8692L21.2368 2.06923L19.2752 2.45876ZM29.152 46.064H23.2V48.064H29.152V46.064ZM24.1794 46.8621L22.4514 38.4781L20.4926 38.8819L22.2206 47.2659L24.1794 46.8621ZM21.472 37.68H12.96V39.68H21.472V37.68ZM11.9777 38.4925L10.3777 46.8765L12.3423 47.2515L13.9423 38.8675L11.9777 38.4925ZM11.36 46.064H5.408V48.064H11.36V46.064ZM14.112 33.792H20.448V31.792H14.112V33.792ZM21.4299 32.6027L18.3579 16.6667L16.3941 17.0453L19.4661 32.9813L21.4299 32.6027ZM16.3963 16.6553L13.1323 32.5913L15.0917 32.9927L18.3557 17.0567L16.3963 16.6553ZM37.1875 41.4688L36.4465 40.7972L36.4407 40.8037L36.4349 40.8102L37.1875 41.4688ZM42.5625 41.4688L41.8215 42.1403L41.8272 42.1465L41.833 42.1527L42.5625 41.4688ZM42.5625 46.375L41.8439 45.6796L41.838 45.6857L41.8322 45.6918L42.5625 46.375ZM37.1875 46.375L36.4454 47.0453L36.4513 47.0518L36.4572 47.0582L37.1875 46.375ZM37.3125 43.9688C37.3125 43.1776 37.5369 42.588 37.9401 42.1273L36.4349 40.8102C35.6714 41.6828 35.3125 42.7599 35.3125 43.9688H37.3125ZM37.9285 42.1403C38.2875 41.7442 38.8747 41.4688 39.875 41.4688V39.4688C38.5003 39.4688 37.2959 39.86 36.4465 40.7972L37.9285 42.1403ZM39.875 41.4688C40.8753 41.4688 41.4625 41.7442 41.8215 42.1403L43.3035 40.7972C42.4541 39.86 41.2497 39.4688 39.875 39.4688V41.4688ZM41.833 42.1527C42.2671 42.6158 42.5 43.1967 42.5 43.9688H44.5C44.5 42.7408 44.1079 41.655 43.292 40.7848L41.833 42.1527ZM42.5 43.9688C42.5 44.6865 42.2756 45.2335 41.8439 45.6796L43.2811 47.0704C44.0994 46.2249 44.5 45.1676 44.5 43.9688H42.5ZM41.8322 45.6918C41.4755 46.0732 40.8845 46.3438 39.875 46.3438V48.3438C41.2405 48.3438 42.4412 47.9684 43.2928 47.0582L41.8322 45.6918ZM39.875 46.3438C38.8655 46.3438 38.2745 46.0732 37.9178 45.6918L36.4572 47.0582C37.3088 47.9684 38.5095 48.3438 39.875 48.3438V46.3438ZM37.9296 45.7047C37.5296 45.2618 37.3125 44.7065 37.3125 43.9688H35.3125C35.3125 45.1476 35.6788 46.1965 36.4454 47.0453L37.9296 45.7047ZM61.7188 1.5L62.647 1.12807L62.3954 0.5H61.7188V1.5ZM76.5938 38.625L75.6655 38.9969L76.5938 41.3137L77.522 38.9969L76.5938 38.625ZM91.4688 1.5V0.5H90.7921L90.5405 1.12807L91.4688 1.5ZM99.25 1.5H100.25V0.5H99.25V1.5ZM99.25 47V48H100.25V47H99.25ZM93.25 47H92.25V48H93.25V47ZM93.25 29.2812L92.2504 29.2519L92.25 29.2665V29.2812H93.25ZM93.8125 10.1562L94.8121 10.1856L92.8858 9.78053L93.8125 10.1562ZM78.875 47V48H79.5486L79.8017 47.3757L78.875 47ZM74.2812 47L73.3546 47.3759L73.6077 48H74.2812V47ZM59.375 10.25L60.3017 9.87413L58.3755 10.2812L59.375 10.25ZM59.9688 29.2812H60.9688V29.2657L60.9683 29.2501L59.9688 29.2812ZM59.9688 47V48H60.9688V47H59.9688ZM53.9688 47H52.9688V48H53.9688V47ZM53.9688 1.5V0.5H52.9688V1.5H53.9688ZM60.7905 1.87193L75.6655 38.9969L77.522 38.2531L62.647 1.12807L60.7905 1.87193ZM77.522 38.9969L92.397 1.87193L90.5405 1.12807L75.6655 38.2531L77.522 38.9969ZM91.4688 2.5H99.25V0.5H91.4688V2.5ZM98.25 1.5V47H100.25V1.5H98.25ZM99.25 46H93.25V48H99.25V46ZM94.25 47V29.2812H92.25V47H94.25ZM94.2496 29.3106L94.8121 10.1856L92.8129 10.1269L92.2504 29.2519L94.2496 29.3106ZM92.8858 9.78053L77.9483 46.6243L79.8017 47.3757L94.7392 10.532L92.8858 9.78053ZM78.875 46H74.2812V48H78.875V46ZM75.2079 46.6241L60.3017 9.87413L58.4483 10.6259L73.3546 47.3759L75.2079 46.6241ZM58.3755 10.2812L58.9692 29.3124L60.9683 29.2501L60.3745 10.2188L58.3755 10.2812ZM58.9688 29.2812V47H60.9688V29.2812H58.9688ZM59.9688 46H53.9688V48H59.9688V46ZM54.9688 47V1.5H52.9688V47H54.9688ZM53.9688 2.5H61.7188V0.5H53.9688V2.5ZM135.562 25.9688V26.9688H136.562V25.9688H135.562ZM115.844 25.9688V24.9688H114.844V25.9688H115.844ZM115.844 42.0938H114.844V43.0938H115.844V42.0938ZM138.75 42.0938H139.75V41.0938H138.75V42.0938ZM138.75 47V48H139.75V47H138.75ZM109.844 47H108.844V48H109.844V47ZM109.844 1.5V0.5H108.844V1.5H109.844ZM138.438 1.5H139.438V0.5H138.438V1.5ZM138.438 6.4375V7.4375H139.438V6.4375H138.438ZM115.844 6.4375V5.4375H114.844V6.4375H115.844ZM115.844 21.0625H114.844V22.0625H115.844V21.0625ZM135.562 21.0625H136.562V20.0625H135.562V21.0625ZM135.562 24.9688H115.844V26.9688H135.562V24.9688ZM114.844 25.9688V42.0938H116.844V25.9688H114.844ZM115.844 43.0938H138.75V41.0938H115.844V43.0938ZM137.75 42.0938V47H139.75V42.0938H137.75ZM138.75 46H109.844V48H138.75V46ZM110.844 47V1.5H108.844V47H110.844ZM109.844 2.5H138.438V0.5H109.844V2.5ZM137.438 1.5V6.4375H139.438V1.5H137.438ZM138.438 5.4375H115.844V7.4375H138.438V5.4375ZM114.844 6.4375V21.0625H116.844V6.4375H114.844ZM115.844 22.0625H135.562V20.0625H115.844V22.0625ZM134.562 21.0625V25.9688H136.562V21.0625H134.562Z" fill="#F5F5F5" fill-opacity="0.25"/>
</g>
<defs>
<filter id="filter0_di" x="0.186493" y="0.5" width="143.564" height="55.8438" filterUnits="userSpaceOnUse" color-interpolation-filters="sRGB">
<feFlood flood-opacity="0" result="BackgroundImageFix"/>
<feColorMatrix in="SourceAlpha" type="matrix" values="0 0 0 0 0 0 0 0 0 0 0 0 0 0 0 0 0 0 127 0"/>
<feOffset dy="4"/>
<feGaussianBlur stdDeviation="2"/>
<feColorMatrix type="matrix" values="0 0 0 0 0 0 0 0 0 0 0 0 0 0 0 0 0 0 0.25 0"/>
<feBlend mode="normal" in2="BackgroundImageFix" result="effect1_dropShadow"/>
<feBlend mode="normal" in="SourceGraphic" in2="effect1_dropShadow" result="shape"/>
<feColorMatrix in="SourceAlpha" type="matrix" values="0 0 0 0 0 0 0 0 0 0 0 0 0 0 0 0 0 0 127 0" result="hardAlpha"/>
<feOffset dy="4"/>
<feGaussianBlur stdDeviation="2"/>
<feComposite in2="hardAlpha" operator="arithmetic" k2="-1" k3="1"/>
<feColorMatrix type="matrix" values="0 0 0 0 0 0 0 0 0 0 0 0 0 0 0 0 0 0 0.25 0"/>
<feBlend mode="normal" in2="shape" result="effect2_innerShadow"/>
</filter>
</defs>
</svg>
