<svg width="475" height="49" viewBox="0 0 475 49" fill="none" xmlns="http://www.w3.org/2000/svg">
<g filter="url(#filter0_i)">
<path d="M1.408 47.064L10.432 2.264H16.256L25.152 47.064H19.2L17.472 38.68H8.96L7.36 47.064H1.408ZM10.112 32.792H16.448L13.376 16.856L10.112 32.792ZM35.7635 47C34.5688 47 33.5022 46.552 32.5635 45.656C31.6248 44.76 31.1555 43.672 31.1555 42.392V6.808C31.1555 5.57067 31.6248 4.504 32.5635 3.608C33.5022 2.66933 34.5688 2.2 35.7635 2.2H50.2915C51.6142 2.2 52.7022 2.66933 53.5555 3.608C54.4515 4.504 54.8995 5.57067 54.8995 6.808V15.128L48.9475 16.472V10.456C48.9475 9.85866 48.7342 9.32533 48.3075 8.856C47.9235 8.38666 47.3902 8.152 46.7075 8.152H39.4115C38.8142 8.152 38.2808 8.38666 37.8115 8.856C37.3422 9.32533 37.1075 9.85866 37.1075 10.456V38.744C37.1075 39.4267 37.3422 39.9813 37.8115 40.408C38.2808 40.8347 38.8142 41.048 39.4115 41.048H46.7075C47.3902 41.048 47.9235 40.8347 48.3075 40.408C48.7342 39.9813 48.9475 39.4267 48.9475 38.744V34.072L54.8995 32.664V42.392C54.8995 43.672 54.4515 44.76 53.5555 45.656C52.7022 46.552 51.6142 47 50.2915 47H35.7635ZM63.5105 47C62.3158 47 61.2705 46.552 60.3745 45.656C59.4785 44.76 59.0305 43.6507 59.0305 42.328V6.872C59.0305 5.54933 59.4785 4.44 60.3745 3.544C61.2705 2.648 62.3158 2.2 63.5105 2.2H78.0385C79.4038 2.2 80.5132 2.648 81.3665 3.544C82.2625 4.44 82.7105 5.54933 82.7105 6.872V42.328C82.7105 43.6507 82.2625 44.76 81.3665 45.656C80.5132 46.552 79.4038 47 78.0385 47H63.5105ZM67.1585 41.112H74.3905C75.1158 41.112 75.6918 40.8773 76.1185 40.408C76.5878 39.9387 76.8225 39.3627 76.8225 38.68V10.52C76.8225 9.79467 76.5878 9.21867 76.1185 8.792C75.6918 8.32266 75.1158 8.088 74.3905 8.088H67.1585C66.5612 8.088 66.0278 8.32266 65.5585 8.792C65.1318 9.21867 64.9185 9.79467 64.9185 10.52V38.68C64.9185 39.3627 65.1318 39.9387 65.5585 40.408C66.0278 40.8773 66.5612 41.112 67.1585 41.112ZM87.468 47V2.2H93.42L102.316 29.528L111.212 2.2H117.164V47H111.212V20.376L105.26 38.616H99.372L93.42 20.376V47H87.468ZM122.531 47V2.2H141.731C142.968 2.2 144.035 2.648 144.931 3.544C145.869 4.44 146.339 5.528 146.339 6.808V20.568C146.339 21.848 145.869 22.936 144.931 23.832C144.035 24.728 142.968 25.176 141.731 25.176H128.483V47H122.531ZM128.483 19.224H138.083C138.723 19.224 139.256 19.0107 139.683 18.584C140.152 18.1147 140.387 17.56 140.387 16.92V10.392C140.387 9.79467 140.152 9.28267 139.683 8.856C139.256 8.38666 138.723 8.152 138.083 8.152H128.483V19.224ZM145.346 47.064L154.37 2.264H160.194L169.09 47.064H163.138L161.41 38.68H152.898L151.298 47.064H145.346ZM154.05 32.792H160.385L157.314 16.856L154.05 32.792ZM172.531 47V2.2H178.483L190.387 32.088V2.2H196.339V47H190.387L178.483 17.112V47H172.531ZM201.718 47V2.2H207.67V19.224H219.574V2.2H225.462V47H219.574V25.176H207.67V47H201.718ZM228.908 47.064L237.932 2.264H243.756L252.652 47.064H246.7L244.972 38.68H236.46L234.86 47.064H228.908ZM237.612 32.792H243.948L240.876 16.856L237.612 32.792ZM256.093 47V2.2H262.045L273.949 32.088V2.2H279.901V47H273.949L262.045 17.112V47H256.093ZM292.671 47V8.152H283.775V2.2H307.519V8.152H298.623V47H292.671ZM311.406 47V2.2H335.214V8.088H317.358V19.224H329.262L327.918 25.176H317.358V41.048H335.214V47H311.406ZM343.698 47C342.418 47 341.33 46.552 340.434 45.656C339.538 44.76 339.09 43.672 339.09 42.392V32.472L345.042 33.816V38.744C345.042 39.384 345.255 39.9387 345.682 40.408C346.151 40.8347 346.685 41.048 347.282 41.048H354.578C355.218 41.048 355.751 40.8347 356.178 40.408C356.647 39.9387 356.882 39.384 356.882 38.744V27.48C356.882 26.84 356.647 26.3067 356.178 25.88C355.751 25.4107 355.218 25.176 354.578 25.176H343.698C342.418 25.176 341.33 24.728 340.434 23.832C339.538 22.936 339.09 21.848 339.09 20.568V6.808C339.09 5.528 339.538 4.44 340.434 3.544C341.33 2.648 342.418 2.2 343.698 2.2H358.226C359.506 2.2 360.594 2.648 361.49 3.544C362.386 4.44 362.834 5.528 362.834 6.808V13.72L356.882 12.312V10.456C356.882 9.816 356.647 9.28267 356.178 8.856C355.751 8.38666 355.218 8.152 354.578 8.152H347.282C346.685 8.152 346.151 8.38666 345.682 8.856C345.255 9.28267 345.042 9.816 345.042 10.456V16.92C345.042 17.56 345.255 18.1147 345.682 18.584C346.151 19.0107 346.685 19.224 347.282 19.224H358.226C359.506 19.224 360.594 19.672 361.49 20.568C362.386 21.464 362.834 22.552 362.834 23.832V42.392C362.834 43.672 362.386 44.76 361.49 45.656C360.594 46.552 359.506 47 358.226 47H343.698ZM371.188 43.9688C371.188 42.9688 371.479 42.1354 372.062 41.4688C372.667 40.8021 373.562 40.4688 374.75 40.4688C375.938 40.4688 376.833 40.8021 377.438 41.4688C378.062 42.1354 378.375 42.9688 378.375 43.9688C378.375 44.9271 378.062 45.7292 377.438 46.375C376.833 47.0208 375.938 47.3438 374.75 47.3438C373.562 47.3438 372.667 47.0208 372.062 46.375C371.479 45.7292 371.188 44.9271 371.188 43.9688Z" fill="#F5F5F5"/>
<path d="M396.594 1.5L411.469 38.625L426.344 1.5H434.125V47H428.125V29.2812L428.688 10.1562L413.75 47H409.156L394.25 10.25L394.844 29.2812V47H388.844V1.5H396.594ZM470.438 25.9688H450.719V42.0938H473.625V47H444.719V1.5H473.312V6.4375H450.719V21.0625H470.438V25.9688Z" fill="#F9057C"/>
</g>
<path d="M1.408 47.064L0.42769 46.8665L0.186487 48.064H1.408V47.064ZM10.432 2.264V1.264H9.61334L9.45169 2.06653L10.432 2.264ZM16.256 2.264L17.2368 2.06923L17.077 1.264H16.256V2.264ZM25.152 47.064V48.064H26.3701L26.1328 46.8692L25.152 47.064ZM19.2 47.064L18.2206 47.2659L18.3851 48.064H19.2V47.064ZM17.472 38.68L18.4514 38.4781L18.2869 37.68H17.472V38.68ZM8.96 38.68V37.68H8.13279L7.97773 38.4925L8.96 38.68ZM7.36 47.064V48.064H8.18721L8.34227 47.2515L7.36 47.064ZM10.112 32.792L9.13234 32.5913L8.88642 33.792H10.112V32.792ZM16.448 32.792V33.792H17.6592L17.4299 32.6027L16.448 32.792ZM13.376 16.856L14.3579 16.6667L12.3963 16.6553L13.376 16.856ZM2.38831 47.2615L11.4123 2.46146L9.45169 2.06653L0.42769 46.8665L2.38831 47.2615ZM10.432 3.264H16.256V1.264H10.432V3.264ZM15.2752 2.45876L24.1712 47.2588L26.1328 46.8692L17.2368 2.06923L15.2752 2.45876ZM25.152 46.064H19.2V48.064H25.152V46.064ZM20.1794 46.8621L18.4514 38.4781L16.4926 38.8819L18.2206 47.2659L20.1794 46.8621ZM17.472 37.68H8.96V39.68H17.472V37.68ZM7.97773 38.4925L6.37773 46.8765L8.34227 47.2515L9.94227 38.8675L7.97773 38.4925ZM7.36 46.064H1.408V48.064H7.36V46.064ZM10.112 33.792H16.448V31.792H10.112V33.792ZM17.4299 32.6027L14.3579 16.6667L12.3941 17.0453L15.4661 32.9813L17.4299 32.6027ZM12.3963 16.6553L9.13234 32.5913L11.0917 32.9927L14.3557 17.0567L12.3963 16.6553ZM32.5635 45.656L33.254 44.9326L33.254 44.9326L32.5635 45.656ZM32.5635 3.608L33.254 4.33135L33.2624 4.32333L33.2706 4.3151L32.5635 3.608ZM53.5555 3.608L52.8156 4.28067L52.8316 4.29828L52.8484 4.3151L53.5555 3.608ZM54.8995 15.128L55.1198 16.1034L55.8995 15.9274V15.128H54.8995ZM48.9475 16.472H47.9475V17.723L49.1678 17.4474L48.9475 16.472ZM48.3075 8.856L47.5335 9.48924L47.55 9.5094L47.5676 9.52867L48.3075 8.856ZM37.8115 8.856L38.5186 9.56311L38.5186 9.5631L37.8115 8.856ZM37.8115 40.408L38.4842 39.6681L38.4842 39.6681L37.8115 40.408ZM48.3075 40.408L47.6004 39.7009L47.5818 39.7195L47.5642 39.739L48.3075 40.408ZM48.9475 34.072L48.7173 33.0989L47.9475 33.281V34.072H48.9475ZM54.8995 32.664H55.8995V31.3998L54.6693 31.6909L54.8995 32.664ZM53.5555 45.656L52.8484 44.9489L52.8398 44.9575L52.8314 44.9663L53.5555 45.656ZM35.7635 46C34.8493 46 34.0242 45.6678 33.254 44.9326L31.873 46.3794C32.9802 47.4362 34.2884 48 35.7635 48V46ZM33.254 44.9326C32.5099 44.2224 32.1555 43.3945 32.1555 42.392H30.1555C30.1555 43.9495 30.7398 45.2976 31.873 46.3794L33.254 44.9326ZM32.1555 42.392V6.808H30.1555V42.392H32.1555ZM32.1555 6.808C32.1555 5.85854 32.5022 5.04898 33.254 4.33135L31.873 2.88464C30.7475 3.95902 30.1555 5.28279 30.1555 6.808H32.1555ZM33.2706 4.3151C34.0446 3.54113 34.8647 3.2 35.7635 3.2V1.2C34.273 1.2 32.9598 1.79753 31.8564 2.90089L33.2706 4.3151ZM35.7635 3.2H50.2915V1.2H35.7635V3.2ZM50.2915 3.2C51.346 3.2 52.1607 3.56034 52.8156 4.28067L54.2954 2.93533C53.2436 1.77833 51.8823 1.2 50.2915 1.2V3.2ZM52.8484 4.3151C53.5619 5.02863 53.8995 5.84295 53.8995 6.808H55.8995C55.8995 5.29838 55.3411 3.97937 54.2626 2.90089L52.8484 4.3151ZM53.8995 6.808V15.128H55.8995V6.808H53.8995ZM54.6792 14.1526L48.7272 15.4966L49.1678 17.4474L55.1198 16.1034L54.6792 14.1526ZM49.9475 16.472V10.456H47.9475V16.472H49.9475ZM49.9475 10.456C49.9475 9.59357 49.6301 8.82428 49.0474 8.18333L47.5676 9.52867C47.8382 9.82638 47.9475 10.1238 47.9475 10.456H49.9475ZM49.0815 8.22276C48.4821 7.49024 47.6475 7.152 46.7075 7.152V9.152C47.1328 9.152 47.3649 9.28309 47.5335 9.48924L49.0815 8.22276ZM46.7075 7.152H39.4115V9.152H46.7075V7.152ZM39.4115 7.152C38.5183 7.152 37.7384 7.51486 37.1044 8.14889L38.5186 9.5631C38.8232 9.25847 39.11 9.152 39.4115 9.152V7.152ZM37.1044 8.14889C36.4704 8.78292 36.1075 9.56281 36.1075 10.456H38.1075C38.1075 10.1545 38.214 9.86774 38.5186 9.56311L37.1044 8.14889ZM36.1075 10.456V38.744H38.1075V10.456H36.1075ZM36.1075 38.744C36.1075 39.6843 36.4438 40.5161 37.1388 41.1479L38.4842 39.6681C38.2405 39.4466 38.1075 39.169 38.1075 38.744H36.1075ZM37.1388 41.1479C37.7798 41.7306 38.5491 42.048 39.4115 42.048V40.048C39.0793 40.048 38.7819 39.9387 38.4842 39.6681L37.1388 41.1479ZM39.4115 42.048H46.7075V40.048H39.4115V42.048ZM46.7075 42.048C47.6151 42.048 48.4412 41.7543 49.0508 41.077L47.5642 39.739C47.4058 39.9151 47.1653 40.048 46.7075 40.048V42.048ZM49.0146 41.1151C49.6541 40.4757 49.9475 39.6539 49.9475 38.744H47.9475C47.9475 39.1994 47.8143 39.487 47.6004 39.7009L49.0146 41.1151ZM49.9475 38.744V34.072H47.9475V38.744H49.9475ZM49.1777 35.0451L55.1297 33.6371L54.6693 31.6909L48.7173 33.0989L49.1777 35.0451ZM53.8995 32.664V42.392H55.8995V32.664H53.8995ZM53.8995 42.392C53.8995 43.4098 53.5547 44.2426 52.8484 44.9489L54.2626 46.3631C55.3483 45.2774 55.8995 43.9342 55.8995 42.392H53.8995ZM52.8314 44.9663C52.1808 45.6494 51.3616 46 50.2915 46V48C51.8668 48 53.2235 47.4546 54.2796 46.3457L52.8314 44.9663ZM50.2915 46H35.7635V48H50.2915V46ZM60.3745 45.656L61.0816 44.9489L61.0816 44.9489L60.3745 45.656ZM60.3745 3.544L61.0816 4.25111L61.0816 4.2511L60.3745 3.544ZM81.3665 3.544L80.6424 4.23365L80.6508 4.24248L80.6594 4.25111L81.3665 3.544ZM81.3665 45.656L80.6594 44.9489L80.6508 44.9575L80.6424 44.9663L81.3665 45.656ZM76.1185 40.408L75.4114 39.7009L75.3946 39.7177L75.3786 39.7353L76.1185 40.408ZM76.1185 8.792L75.3786 9.46467L75.4106 9.49991L75.4458 9.53194L76.1185 8.792ZM65.5585 8.792L66.2656 9.49911L66.2656 9.49911L65.5585 8.792ZM65.5585 40.408L64.8186 41.0807L64.8346 41.0983L64.8514 41.1151L65.5585 40.408ZM63.5105 46C62.5984 46 61.8027 45.67 61.0816 44.9489L59.6674 46.3631C60.7383 47.434 62.0333 48 63.5105 48V46ZM61.0816 44.9489C60.3821 44.2494 60.0305 43.3984 60.0305 42.328H58.0305C58.0305 43.9029 58.5749 45.2706 59.6674 46.3631L61.0816 44.9489ZM60.0305 42.328V6.872H58.0305V42.328H60.0305ZM60.0305 6.872C60.0305 5.80159 60.3821 4.9506 61.0816 4.25111L59.6674 2.83689C58.5749 3.92939 58.0305 5.29707 58.0305 6.872H60.0305ZM61.0816 4.2511C61.8027 3.53001 62.5984 3.2 63.5105 3.2V1.2C62.0333 1.2 60.7383 1.76598 59.6674 2.83689L61.0816 4.2511ZM63.5105 3.2H78.0385V1.2H63.5105V3.2ZM78.0385 3.2C79.1615 3.2 79.9983 3.55742 80.6424 4.23365L82.0906 2.85434C81.028 1.73857 79.6462 1.2 78.0385 1.2V3.2ZM80.6594 4.25111C81.3589 4.9506 81.7105 5.80159 81.7105 6.872H83.7105C83.7105 5.29707 83.1661 3.92939 82.0736 2.83689L80.6594 4.25111ZM81.7105 6.872V42.328H83.7105V6.872H81.7105ZM81.7105 42.328C81.7105 43.3984 81.3589 44.2494 80.6594 44.9489L82.0736 46.3631C83.1661 45.2706 83.7105 43.9029 83.7105 42.328H81.7105ZM80.6424 44.9663C79.9983 45.6426 79.1615 46 78.0385 46V48C79.6462 48 81.028 47.4614 82.0906 46.3457L80.6424 44.9663ZM78.0385 46H63.5105V48H78.0385V46ZM67.1585 42.112H74.3905V40.112H67.1585V42.112ZM74.3905 42.112C75.353 42.112 76.2142 41.7894 76.8584 41.0807L75.3786 39.7353C75.1695 39.9653 74.8787 40.112 74.3905 40.112V42.112ZM76.8256 41.1151C77.4884 40.4523 77.8225 39.6194 77.8225 38.68H75.8225C75.8225 39.1059 75.6873 39.425 75.4114 39.7009L76.8256 41.1151ZM77.8225 38.68V10.52H75.8225V38.68H77.8225ZM77.8225 10.52C77.8225 9.55754 77.4999 8.69632 76.7912 8.05206L75.4458 9.53194C75.6758 9.74102 75.8225 10.0318 75.8225 10.52H77.8225ZM76.8584 8.11933C76.2142 7.41064 75.353 7.088 74.3905 7.088V9.088C74.8787 9.088 75.1695 9.23469 75.3786 9.46467L76.8584 8.11933ZM74.3905 7.088H67.1585V9.088H74.3905V7.088ZM67.1585 7.088C66.2653 7.088 65.4854 7.45086 64.8514 8.08489L66.2656 9.49911C66.5702 9.19447 66.857 9.088 67.1585 9.088V7.088ZM64.8514 8.08489C64.2002 8.73608 63.9185 9.58678 63.9185 10.52H65.9185C65.9185 10.0025 66.0635 9.70125 66.2656 9.49911L64.8514 8.08489ZM63.9185 10.52V38.68H65.9185V10.52H63.9185ZM63.9185 38.68C63.9185 39.5908 64.2112 40.4125 64.8186 41.0807L66.2984 39.7353C66.0525 39.4648 65.9185 39.1346 65.9185 38.68H63.9185ZM64.8514 41.1151C65.4854 41.7491 66.2653 42.112 67.1585 42.112V40.112C66.857 40.112 66.5702 40.0055 66.2656 39.7009L64.8514 41.1151ZM87.468 47H86.468V48H87.468V47ZM87.468 2.2V1.2H86.468V2.2H87.468ZM93.42 2.2L94.3709 1.89046L94.1461 1.2H93.42V2.2ZM102.316 29.528L101.365 29.8375L102.316 32.7586L103.267 29.8375L102.316 29.528ZM111.212 2.2V1.2H110.486L110.261 1.89046L111.212 2.2ZM117.164 2.2H118.164V1.2H117.164V2.2ZM117.164 47V48H118.164V47H117.164ZM111.212 47H110.212V48H111.212V47ZM111.212 20.376H112.212L110.261 20.0658L111.212 20.376ZM105.26 38.616V39.616H105.986L106.211 38.9262L105.26 38.616ZM99.372 38.616L98.4213 38.9262L98.6464 39.616H99.372V38.616ZM93.42 20.376L94.3707 20.0658L92.42 20.376H93.42ZM93.42 47V48H94.42V47H93.42ZM88.468 47V2.2H86.468V47H88.468ZM87.468 3.2H93.42V1.2H87.468V3.2ZM92.4691 2.50954L101.365 29.8375L103.267 29.2185L94.3709 1.89046L92.4691 2.50954ZM103.267 29.8375L112.163 2.50954L110.261 1.89046L101.365 29.2185L103.267 29.8375ZM111.212 3.2H117.164V1.2H111.212V3.2ZM116.164 2.2V47H118.164V2.2H116.164ZM117.164 46H111.212V48H117.164V46ZM112.212 47V20.376H110.212V47H112.212ZM110.261 20.0658L104.309 38.3058L106.211 38.9262L112.163 20.6862L110.261 20.0658ZM105.26 37.616H99.372V39.616H105.26V37.616ZM100.323 38.3058L94.3707 20.0658L92.4693 20.6862L98.4213 38.9262L100.323 38.3058ZM92.42 20.376V47H94.42V20.376H92.42ZM93.42 46H87.468V48H93.42V46ZM122.531 47H121.531V48H122.531V47ZM122.531 2.2V1.2H121.531V2.2H122.531ZM144.931 3.544L144.223 4.2511L144.232 4.25933L144.24 4.26735L144.931 3.544ZM144.931 23.832L144.24 23.1086L144.232 23.1167L144.223 23.1249L144.931 23.832ZM128.483 25.176V24.176H127.483V25.176H128.483ZM128.483 47V48H129.483V47H128.483ZM128.483 19.224H127.483V20.224H128.483V19.224ZM139.683 18.584L138.975 17.8769L138.975 17.8769L139.683 18.584ZM139.683 8.856L138.943 9.52867L138.975 9.56391L139.01 9.59594L139.683 8.856ZM128.483 8.152V7.152H127.483V8.152H128.483ZM123.531 47V2.2H121.531V47H123.531ZM122.531 3.2H141.731V1.2H122.531V3.2ZM141.731 3.2C142.696 3.2 143.51 3.53758 144.223 4.2511L145.638 2.83689C144.559 1.75841 143.24 1.2 141.731 1.2V3.2ZM144.24 4.26735C144.984 4.9776 145.339 5.80552 145.339 6.808H147.339C147.339 5.25048 146.754 3.90239 145.621 2.82064L144.24 4.26735ZM145.339 6.808V20.568H147.339V6.808H145.339ZM145.339 20.568C145.339 21.5705 144.984 22.3984 144.24 23.1086L145.621 24.5554C146.754 23.4736 147.339 22.1255 147.339 20.568H145.339ZM144.223 23.1249C143.51 23.8384 142.696 24.176 141.731 24.176V26.176C143.24 26.176 144.559 25.6176 145.638 24.5391L144.223 23.1249ZM141.731 24.176H128.483V26.176H141.731V24.176ZM127.483 25.176V47H129.483V25.176H127.483ZM128.483 46H122.531V48H128.483V46ZM128.483 20.224H138.083V18.224H128.483V20.224ZM138.083 20.224C138.97 20.224 139.763 19.9176 140.39 19.2911L138.975 17.8769C138.749 18.1038 138.475 18.224 138.083 18.224V20.224ZM140.39 19.2911C141.039 18.642 141.387 17.836 141.387 16.92H139.387C139.387 17.284 139.265 17.5873 138.975 17.8769L140.39 19.2911ZM141.387 16.92V10.392H139.387V16.92H141.387ZM141.387 10.392C141.387 9.49386 141.018 8.71904 140.355 8.11606L139.01 9.59594C139.285 9.84629 139.387 10.0955 139.387 10.392H141.387ZM140.422 8.18333C139.804 7.50338 139.001 7.152 138.083 7.152V9.152C138.444 9.152 138.707 9.26995 138.943 9.52867L140.422 8.18333ZM138.083 7.152H128.483V9.152H138.083V7.152ZM127.483 8.152V19.224H129.483V8.152H127.483ZM145.346 47.064L144.365 46.8665L144.124 48.064H145.346V47.064ZM154.37 2.264V1.264H153.551L153.389 2.06653L154.37 2.264ZM160.194 2.264L161.174 2.06923L161.014 1.264H160.194V2.264ZM169.09 47.064V48.064H170.308L170.07 46.8692L169.09 47.064ZM163.138 47.064L162.158 47.2659L162.323 48.064H163.138V47.064ZM161.41 38.68L162.389 38.4781L162.224 37.68H161.41V38.68ZM152.898 38.68V37.68H152.07L151.915 38.4925L152.898 38.68ZM151.298 47.064V48.064H152.125L152.28 47.2515L151.298 47.064ZM154.05 32.792L153.07 32.5913L152.824 33.792H154.05V32.792ZM160.385 32.792V33.792H161.597L161.367 32.6027L160.385 32.792ZM157.314 16.856L158.295 16.6667L156.334 16.6553L157.314 16.856ZM146.326 47.2615L155.35 2.46146L153.389 2.06653L144.365 46.8665L146.326 47.2615ZM154.37 3.264H160.194V1.264H154.37V3.264ZM159.213 2.45876L168.109 47.2588L170.07 46.8692L161.174 2.06923L159.213 2.45876ZM169.09 46.064H163.138V48.064H169.09V46.064ZM164.117 46.8621L162.389 38.4781L160.43 38.8819L162.158 47.2659L164.117 46.8621ZM161.41 37.68H152.898V39.68H161.41V37.68ZM151.915 38.4925L150.315 46.8765L152.28 47.2515L153.88 38.8675L151.915 38.4925ZM151.298 46.064H145.346V48.064H151.298V46.064ZM154.05 33.792H160.385V31.792H154.05V33.792ZM161.367 32.6027L158.295 16.6667L156.332 17.0453L159.404 32.9813L161.367 32.6027ZM156.334 16.6553L153.07 32.5913L155.029 32.9927L158.293 17.0567L156.334 16.6553ZM172.531 47H171.531V48H172.531V47ZM172.531 2.2V1.2H171.531V2.2H172.531ZM178.483 2.2L179.412 1.82998L179.161 1.2H178.483V2.2ZM190.387 32.088L189.457 32.458L191.387 32.088H190.387ZM190.387 2.2V1.2H189.387V2.2H190.387ZM196.339 2.2H197.339V1.2H196.339V2.2ZM196.339 47V48H197.339V47H196.339ZM190.387 47L189.457 47.37L189.708 48H190.387V47ZM178.483 17.112L179.412 16.742L177.483 17.112H178.483ZM178.483 47V48H179.483V47H178.483ZM173.531 47V2.2H171.531V47H173.531ZM172.531 3.2H178.483V1.2H172.531V3.2ZM177.553 2.57002L189.457 32.458L191.316 31.718L179.412 1.82998L177.553 2.57002ZM191.387 32.088V2.2H189.387V32.088H191.387ZM190.387 3.2H196.339V1.2H190.387V3.2ZM195.339 2.2V47H197.339V2.2H195.339ZM196.339 46H190.387V48H196.339V46ZM191.316 46.63L179.412 16.742L177.553 17.482L189.457 47.37L191.316 46.63ZM177.483 17.112V47H179.483V17.112H177.483ZM178.483 46H172.531V48H178.483V46ZM201.718 47H200.718V48H201.718V47ZM201.718 2.2V1.2H200.718V2.2H201.718ZM207.67 2.2H208.67V1.2H207.67V2.2ZM207.67 19.224H206.67V20.224H207.67V19.224ZM219.574 19.224V20.224H220.574V19.224H219.574ZM219.574 2.2V1.2H218.574V2.2H219.574ZM225.462 2.2H226.462V1.2H225.462V2.2ZM225.462 47V48H226.462V47H225.462ZM219.574 47H218.574V48H219.574V47ZM219.574 25.176H220.574V24.176H219.574V25.176ZM207.67 25.176V24.176H206.67V25.176H207.67ZM207.67 47V48H208.67V47H207.67ZM202.718 47V2.2H200.718V47H202.718ZM201.718 3.2H207.67V1.2H201.718V3.2ZM206.67 2.2V19.224H208.67V2.2H206.67ZM207.67 20.224H219.574V18.224H207.67V20.224ZM220.574 19.224V2.2H218.574V19.224H220.574ZM219.574 3.2H225.462V1.2H219.574V3.2ZM224.462 2.2V47H226.462V2.2H224.462ZM225.462 46H219.574V48H225.462V46ZM220.574 47V25.176H218.574V47H220.574ZM219.574 24.176H207.67V26.176H219.574V24.176ZM206.67 25.176V47H208.67V25.176H206.67ZM207.67 46H201.718V48H207.67V46ZM228.908 47.064L227.928 46.8665L227.686 48.064H228.908V47.064ZM237.932 2.264V1.264H237.113L236.952 2.06653L237.932 2.264ZM243.756 2.264L244.737 2.06923L244.577 1.264H243.756V2.264ZM252.652 47.064V48.064H253.87L253.633 46.8692L252.652 47.064ZM246.7 47.064L245.721 47.2659L245.885 48.064H246.7V47.064ZM244.972 38.68L245.951 38.4781L245.787 37.68H244.972V38.68ZM236.46 38.68V37.68H235.633L235.478 38.4925L236.46 38.68ZM234.86 47.064V48.064H235.687L235.842 47.2515L234.86 47.064ZM237.612 32.792L236.632 32.5913L236.386 33.792H237.612V32.792ZM243.948 32.792V33.792H245.159L244.93 32.6027L243.948 32.792ZM240.876 16.856L241.858 16.6667L239.896 16.6553L240.876 16.856ZM229.888 47.2615L238.912 2.46146L236.952 2.06653L227.928 46.8665L229.888 47.2615ZM237.932 3.264H243.756V1.264H237.932V3.264ZM242.775 2.45876L251.671 47.2588L253.633 46.8692L244.737 2.06923L242.775 2.45876ZM252.652 46.064H246.7V48.064H252.652V46.064ZM247.679 46.8621L245.951 38.4781L243.993 38.8819L245.721 47.2659L247.679 46.8621ZM244.972 37.68H236.46V39.68H244.972V37.68ZM235.478 38.4925L233.878 46.8765L235.842 47.2515L237.442 38.8675L235.478 38.4925ZM234.86 46.064H228.908V48.064H234.86V46.064ZM237.612 33.792H243.948V31.792H237.612V33.792ZM244.93 32.6027L241.858 16.6667L239.894 17.0453L242.966 32.9813L244.93 32.6027ZM239.896 16.6553L236.632 32.5913L238.592 32.9927L241.856 17.0567L239.896 16.6553ZM256.093 47H255.093V48H256.093V47ZM256.093 2.2V1.2H255.093V2.2H256.093ZM262.045 2.2L262.974 1.82998L262.723 1.2H262.045V2.2ZM273.949 32.088L273.02 32.458L274.949 32.088H273.949ZM273.949 2.2V1.2H272.949V2.2H273.949ZM279.901 2.2H280.901V1.2H279.901V2.2ZM279.901 47V48H280.901V47H279.901ZM273.949 47L273.02 47.37L273.271 48H273.949V47ZM262.045 17.112L262.974 16.742L261.045 17.112H262.045ZM262.045 47V48H263.045V47H262.045ZM257.093 47V2.2H255.093V47H257.093ZM256.093 3.2H262.045V1.2H256.093V3.2ZM261.116 2.57002L273.02 32.458L274.878 31.718L262.974 1.82998L261.116 2.57002ZM274.949 32.088V2.2H272.949V32.088H274.949ZM273.949 3.2H279.901V1.2H273.949V3.2ZM278.901 2.2V47H280.901V2.2H278.901ZM279.901 46H273.949V48H279.901V46ZM274.878 46.63L262.974 16.742L261.116 17.482L273.02 47.37L274.878 46.63ZM261.045 17.112V47H263.045V17.112H261.045ZM262.045 46H256.093V48H262.045V46ZM292.671 47H291.671V48H292.671V47ZM292.671 8.152H293.671V7.152H292.671V8.152ZM283.775 8.152H282.775V9.152H283.775V8.152ZM283.775 2.2V1.2H282.775V2.2H283.775ZM307.519 2.2H308.519V1.2H307.519V2.2ZM307.519 8.152V9.152H308.519V8.152H307.519ZM298.623 8.152V7.152H297.623V8.152H298.623ZM298.623 47V48H299.623V47H298.623ZM293.671 47V8.152H291.671V47H293.671ZM292.671 7.152H283.775V9.152H292.671V7.152ZM284.775 8.152V2.2H282.775V8.152H284.775ZM283.775 3.2H307.519V1.2H283.775V3.2ZM306.519 2.2V8.152H308.519V2.2H306.519ZM307.519 7.152H298.623V9.152H307.519V7.152ZM297.623 8.152V47H299.623V8.152H297.623ZM298.623 46H292.671V48H298.623V46ZM311.406 47H310.406V48H311.406V47ZM311.406 2.2V1.2H310.406V2.2H311.406ZM335.214 2.2H336.214V1.2H335.214V2.2ZM335.214 8.088V9.088H336.214V8.088H335.214ZM317.358 8.088V7.088H316.358V8.088H317.358ZM317.358 19.224H316.358V20.224H317.358V19.224ZM329.262 19.224L330.237 19.4443L330.512 18.224H329.262V19.224ZM327.918 25.176V26.176H328.717L328.893 25.3963L327.918 25.176ZM317.358 25.176V24.176H316.358V25.176H317.358ZM317.358 41.048H316.358V42.048H317.358V41.048ZM335.214 41.048H336.214V40.048H335.214V41.048ZM335.214 47V48H336.214V47H335.214ZM312.406 47V2.2H310.406V47H312.406ZM311.406 3.2H335.214V1.2H311.406V3.2ZM334.214 2.2V8.088H336.214V2.2H334.214ZM335.214 7.088H317.358V9.088H335.214V7.088ZM316.358 8.088V19.224H318.358V8.088H316.358ZM317.358 20.224H329.262V18.224H317.358V20.224ZM328.286 19.0037L326.942 24.9557L328.893 25.3963L330.237 19.4443L328.286 19.0037ZM327.918 24.176H317.358V26.176H327.918V24.176ZM316.358 25.176V41.048H318.358V25.176H316.358ZM317.358 42.048H335.214V40.048H317.358V42.048ZM334.214 41.048V47H336.214V41.048H334.214ZM335.214 46H311.406V48H335.214V46ZM340.434 45.656L339.727 46.3631L339.727 46.3631L340.434 45.656ZM339.09 32.472L339.31 31.4966L338.09 31.221V32.472H339.09ZM345.042 33.816H346.042V33.0166L345.262 32.8406L345.042 33.816ZM345.682 40.408L344.942 41.0807L344.974 41.1159L345.009 41.1479L345.682 40.408ZM356.178 40.408L356.885 41.1151L356.885 41.1151L356.178 40.408ZM356.178 25.88L355.438 26.5527L355.47 26.5879L355.505 26.6199L356.178 25.88ZM340.434 23.832L339.727 24.5391L339.727 24.5391L340.434 23.832ZM340.434 3.544L341.141 4.25111L341.141 4.25111L340.434 3.544ZM361.49 3.544L360.783 4.2511L360.783 4.25111L361.49 3.544ZM362.834 13.72L362.604 14.6931L363.834 14.9842V13.72H362.834ZM356.882 12.312H355.882V13.103L356.652 13.2851L356.882 12.312ZM356.178 8.856L355.438 9.52867L355.47 9.56391L355.505 9.59594L356.178 8.856ZM345.682 8.856L346.389 9.56311L346.389 9.5631L345.682 8.856ZM345.682 18.584L344.942 19.2567L344.974 19.2919L345.009 19.3239L345.682 18.584ZM343.698 46C342.68 46 341.847 45.6552 341.141 44.9489L339.727 46.3631C340.813 47.4488 342.156 48 343.698 48V46ZM341.141 44.9489C340.435 44.2426 340.09 43.4098 340.09 42.392H338.09C338.09 43.9342 338.641 45.2774 339.727 46.3631L341.141 44.9489ZM340.09 42.392V32.472H338.09V42.392H340.09ZM338.87 33.4474L344.822 34.7914L345.262 32.8406L339.31 31.4966L338.87 33.4474ZM344.042 33.816V38.744H346.042V33.816H344.042ZM344.042 38.744C344.042 39.6303 344.346 40.4254 344.942 41.0807L346.422 39.7353C346.164 39.4519 346.042 39.1377 346.042 38.744H344.042ZM345.009 41.1479C345.65 41.7306 346.42 42.048 347.282 42.048V40.048C346.95 40.048 346.652 39.9387 346.355 39.6681L345.009 41.1479ZM347.282 42.048H354.578V40.048H347.282V42.048ZM354.578 42.048C355.465 42.048 356.259 41.7416 356.885 41.1151L355.471 39.7009C355.244 39.9278 354.971 40.048 354.578 40.048V42.048ZM356.885 41.1151C357.534 40.466 357.882 39.66 357.882 38.744H355.882C355.882 39.108 355.76 39.4113 355.471 39.7009L356.885 41.1151ZM357.882 38.744V27.48H355.882V38.744H357.882ZM357.882 27.48C357.882 26.5612 357.531 25.7582 356.851 25.1401L355.505 26.6199C355.764 26.8551 355.882 27.1188 355.882 27.48H357.882ZM356.918 25.2073C356.3 24.5274 355.497 24.176 354.578 24.176V26.176C354.939 26.176 355.203 26.2939 355.438 26.5527L356.918 25.2073ZM354.578 24.176H343.698V26.176H354.578V24.176ZM343.698 24.176C342.68 24.176 341.847 23.8312 341.141 23.1249L339.727 24.5391C340.813 25.6248 342.156 26.176 343.698 26.176V24.176ZM341.141 23.1249C340.435 22.4186 340.09 21.5858 340.09 20.568H338.09C338.09 22.1102 338.641 23.4534 339.727 24.5391L341.141 23.1249ZM340.09 20.568V6.808H338.09V20.568H340.09ZM340.09 6.808C340.09 5.79019 340.435 4.95744 341.141 4.25111L339.727 2.83689C338.641 3.92256 338.09 5.26581 338.09 6.808H340.09ZM341.141 4.25111C341.847 3.54477 342.68 3.2 343.698 3.2V1.2C342.156 1.2 340.813 1.75123 339.727 2.83689L341.141 4.25111ZM343.698 3.2H358.226V1.2H343.698V3.2ZM358.226 3.2C359.244 3.2 360.077 3.54477 360.783 4.2511L362.197 2.83689C361.111 1.75123 359.768 1.2 358.226 1.2V3.2ZM360.783 4.25111C361.489 4.95744 361.834 5.79019 361.834 6.808H363.834C363.834 5.26581 363.283 3.92256 362.197 2.83689L360.783 4.25111ZM361.834 6.808V13.72H363.834V6.808H361.834ZM363.064 12.7469L357.112 11.3389L356.652 13.2851L362.604 14.6931L363.064 12.7469ZM357.882 12.312V10.456H355.882V12.312H357.882ZM357.882 10.456C357.882 9.53715 357.531 8.73419 356.851 8.11606L355.505 9.59594C355.764 9.83114 355.882 10.0948 355.882 10.456H357.882ZM356.918 8.18333C356.3 7.50338 355.497 7.152 354.578 7.152V9.152C354.939 9.152 355.203 9.26995 355.438 9.52867L356.918 8.18333ZM354.578 7.152H347.282V9.152H354.578V7.152ZM347.282 7.152C346.389 7.152 345.609 7.51486 344.975 8.14889L346.389 9.5631C346.694 9.25847 346.981 9.152 347.282 9.152V7.152ZM344.975 8.14889C344.348 8.77535 344.042 9.56864 344.042 10.456H346.042C346.042 10.0634 346.162 9.78998 346.389 9.56311L344.975 8.14889ZM344.042 10.456V16.92H346.042V10.456H344.042ZM344.042 16.92C344.042 17.8063 344.346 18.6014 344.942 19.2567L346.422 17.9113C346.164 17.6279 346.042 17.3137 346.042 16.92H344.042ZM345.009 19.3239C345.65 19.9066 346.42 20.224 347.282 20.224V18.224C346.95 18.224 346.652 18.1147 346.355 17.8441L345.009 19.3239ZM347.282 20.224H358.226V18.224H347.282V20.224ZM358.226 20.224C359.244 20.224 360.077 20.5688 360.783 21.2751L362.197 19.8609C361.111 18.7752 359.768 18.224 358.226 18.224V20.224ZM360.783 21.2751C361.489 21.9814 361.834 22.8142 361.834 23.832H363.834C363.834 22.2898 363.283 20.9466 362.197 19.8609L360.783 21.2751ZM361.834 23.832V42.392H363.834V23.832H361.834ZM361.834 42.392C361.834 43.4098 361.489 44.2426 360.783 44.9489L362.197 46.3631C363.283 45.2774 363.834 43.9342 363.834 42.392H361.834ZM360.783 44.9489C360.077 45.6552 359.244 46 358.226 46V48C359.768 48 361.111 47.4488 362.197 46.3631L360.783 44.9489ZM358.226 46H343.698V48H358.226V46ZM372.062 41.4688L371.322 40.7972L371.316 40.8037L371.31 40.8102L372.062 41.4688ZM377.438 41.4688L376.697 42.1403L376.702 42.1465L376.708 42.1527L377.438 41.4688ZM377.438 46.375L376.719 45.6796L376.713 45.6857L376.707 45.6918L377.438 46.375ZM372.062 46.375L371.32 47.0453L371.326 47.0518L371.332 47.0582L372.062 46.375ZM372.188 43.9688C372.188 43.1776 372.412 42.588 372.815 42.1273L371.31 40.8102C370.546 41.6828 370.188 42.7599 370.188 43.9688H372.188ZM372.803 42.1403C373.162 41.7442 373.75 41.4688 374.75 41.4688V39.4688C373.375 39.4688 372.171 39.86 371.322 40.7972L372.803 42.1403ZM374.75 41.4688C375.75 41.4688 376.338 41.7442 376.697 42.1403L378.178 40.7972C377.329 39.86 376.125 39.4688 374.75 39.4688V41.4688ZM376.708 42.1527C377.142 42.6158 377.375 43.1967 377.375 43.9688H379.375C379.375 42.7408 378.983 41.655 378.167 40.7848L376.708 42.1527ZM377.375 43.9688C377.375 44.6865 377.151 45.2335 376.719 45.6796L378.156 47.0704C378.974 46.2249 379.375 45.1676 379.375 43.9688H377.375ZM376.707 45.6918C376.35 46.0732 375.76 46.3438 374.75 46.3438V48.3438C376.115 48.3438 377.316 47.9684 378.168 47.0582L376.707 45.6918ZM374.75 46.3438C373.74 46.3438 373.15 46.0732 372.793 45.6918L371.332 47.0582C372.184 47.9684 373.385 48.3438 374.75 48.3438V46.3438ZM372.805 45.7047C372.405 45.2618 372.188 44.7065 372.188 43.9688H370.188C370.188 45.1476 370.554 46.1965 371.32 47.0453L372.805 45.7047ZM396.594 1.5L397.522 1.12807L397.27 0.5H396.594V1.5ZM411.469 38.625L410.54 38.9969L411.469 41.3137L412.397 38.9969L411.469 38.625ZM426.344 1.5V0.5H425.667L425.415 1.12807L426.344 1.5ZM434.125 1.5H435.125V0.5H434.125V1.5ZM434.125 47V48H435.125V47H434.125ZM428.125 47H427.125V48H428.125V47ZM428.125 29.2812L427.125 29.2519L427.125 29.2665V29.2812H428.125ZM428.688 10.1562L429.687 10.1856L427.761 9.78053L428.688 10.1562ZM413.75 47V48H414.424L414.677 47.3757L413.75 47ZM409.156 47L408.23 47.3759L408.483 48H409.156V47ZM394.25 10.25L395.177 9.87413L393.25 10.2812L394.25 10.25ZM394.844 29.2812H395.844V29.2657L395.843 29.2501L394.844 29.2812ZM394.844 47V48H395.844V47H394.844ZM388.844 47H387.844V48H388.844V47ZM388.844 1.5V0.5H387.844V1.5H388.844ZM395.665 1.87193L410.54 38.9969L412.397 38.2531L397.522 1.12807L395.665 1.87193ZM412.397 38.9969L427.272 1.87193L425.415 1.12807L410.54 38.2531L412.397 38.9969ZM426.344 2.5H434.125V0.5H426.344V2.5ZM433.125 1.5V47H435.125V1.5H433.125ZM434.125 46H428.125V48H434.125V46ZM429.125 47V29.2812H427.125V47H429.125ZM429.125 29.3106L429.687 10.1856L427.688 10.1269L427.125 29.2519L429.125 29.3106ZM427.761 9.78053L412.823 46.6243L414.677 47.3757L429.614 10.532L427.761 9.78053ZM413.75 46H409.156V48H413.75V46ZM410.083 46.6241L395.177 9.87413L393.323 10.6259L408.23 47.3759L410.083 46.6241ZM393.25 10.2812L393.844 29.3124L395.843 29.2501L395.25 10.2188L393.25 10.2812ZM393.844 29.2812V47H395.844V29.2812H393.844ZM394.844 46H388.844V48H394.844V46ZM389.844 47V1.5H387.844V47H389.844ZM388.844 2.5H396.594V0.5H388.844V2.5ZM470.438 25.9688V26.9688H471.438V25.9688H470.438ZM450.719 25.9688V24.9688H449.719V25.9688H450.719ZM450.719 42.0938H449.719V43.0938H450.719V42.0938ZM473.625 42.0938H474.625V41.0938H473.625V42.0938ZM473.625 47V48H474.625V47H473.625ZM444.719 47H443.719V48H444.719V47ZM444.719 1.5V0.5H443.719V1.5H444.719ZM473.312 1.5H474.312V0.5H473.312V1.5ZM473.312 6.4375V7.4375H474.312V6.4375H473.312ZM450.719 6.4375V5.4375H449.719V6.4375H450.719ZM450.719 21.0625H449.719V22.0625H450.719V21.0625ZM470.438 21.0625H471.438V20.0625H470.438V21.0625ZM470.438 24.9688H450.719V26.9688H470.438V24.9688ZM449.719 25.9688V42.0938H451.719V25.9688H449.719ZM450.719 43.0938H473.625V41.0938H450.719V43.0938ZM472.625 42.0938V47H474.625V42.0938H472.625ZM473.625 46H444.719V48H473.625V46ZM445.719 47V1.5H443.719V47H445.719ZM444.719 2.5H473.312V0.5H444.719V2.5ZM472.312 1.5V6.4375H474.312V1.5H472.312ZM473.312 5.4375H450.719V7.4375H473.312V5.4375ZM449.719 6.4375V21.0625H451.719V6.4375H449.719ZM450.719 22.0625H470.438V20.0625H450.719V22.0625ZM469.438 21.0625V25.9688H471.438V21.0625H469.438Z" fill="#0F1636" fill-opacity="0.15"/>
<defs>
<filter id="filter0_i" x="0.186493" y="0.5" width="474.439" height="51.8438" filterUnits="userSpaceOnUse" color-interpolation-filters="sRGB">
<feFlood flood-opacity="0" result="BackgroundImageFix"/>
<feBlend mode="normal" in="SourceGraphic" in2="BackgroundImageFix" result="shape"/>
<feColorMatrix in="SourceAlpha" type="matrix" values="0 0 0 0 0 0 0 0 0 0 0 0 0 0 0 0 0 0 127 0" result="hardAlpha"/>
<feOffset dy="4"/>
<feGaussianBlur stdDeviation="2"/>
<feComposite in2="hardAlpha" operator="arithmetic" k2="-1" k3="1"/>
<feColorMatrix type="matrix" values="0 0 0 0 0 0 0 0 0 0 0 0 0 0 0 0 0 0 0.25 0"/>
<feBlend mode="normal" in2="shape" result="effect1_innerShadow"/>
</filter>
</defs>
</svg>
