<svg width="483" height="57" viewBox="0 0 483 57" fill="none" xmlns="http://www.w3.org/2000/svg">
<g filter="url(#filter0_di)">
<path d="M5.408 47.064L14.432 2.264H20.256L29.152 47.064H23.2L21.472 38.68H12.96L11.36 47.064H5.408ZM14.112 32.792H20.448L17.376 16.856L14.112 32.792ZM39.7635 47C38.5688 47 37.5022 46.552 36.5635 45.656C35.6248 44.76 35.1555 43.672 35.1555 42.392V6.808C35.1555 5.57067 35.6248 4.504 36.5635 3.608C37.5022 2.66933 38.5688 2.2 39.7635 2.2H54.2915C55.6142 2.2 56.7022 2.66933 57.5555 3.608C58.4515 4.504 58.8995 5.57067 58.8995 6.808V15.128L52.9475 16.472V10.456C52.9475 9.85866 52.7342 9.32533 52.3075 8.856C51.9235 8.38666 51.3902 8.152 50.7075 8.152H43.4115C42.8142 8.152 42.2808 8.38666 41.8115 8.856C41.3422 9.32533 41.1075 9.85866 41.1075 10.456V38.744C41.1075 39.4267 41.3422 39.9813 41.8115 40.408C42.2808 40.8347 42.8142 41.048 43.4115 41.048H50.7075C51.3902 41.048 51.9235 40.8347 52.3075 40.408C52.7342 39.9813 52.9475 39.4267 52.9475 38.744V34.072L58.8995 32.664V42.392C58.8995 43.672 58.4515 44.76 57.5555 45.656C56.7022 46.552 55.6142 47 54.2915 47H39.7635ZM67.5105 47C66.3158 47 65.2705 46.552 64.3745 45.656C63.4785 44.76 63.0305 43.6507 63.0305 42.328V6.872C63.0305 5.54933 63.4785 4.44 64.3745 3.544C65.2705 2.648 66.3158 2.2 67.5105 2.2H82.0385C83.4038 2.2 84.5132 2.648 85.3665 3.544C86.2625 4.44 86.7105 5.54933 86.7105 6.872V42.328C86.7105 43.6507 86.2625 44.76 85.3665 45.656C84.5132 46.552 83.4038 47 82.0385 47H67.5105ZM71.1585 41.112H78.3905C79.1158 41.112 79.6918 40.8773 80.1185 40.408C80.5878 39.9387 80.8225 39.3627 80.8225 38.68V10.52C80.8225 9.79467 80.5878 9.21867 80.1185 8.792C79.6918 8.32266 79.1158 8.088 78.3905 8.088H71.1585C70.5612 8.088 70.0278 8.32266 69.5585 8.792C69.1318 9.21867 68.9185 9.79467 68.9185 10.52V38.68C68.9185 39.3627 69.1318 39.9387 69.5585 40.408C70.0278 40.8773 70.5612 41.112 71.1585 41.112ZM91.468 47V2.2H97.42L106.316 29.528L115.212 2.2H121.164V47H115.212V20.376L109.26 38.616H103.372L97.42 20.376V47H91.468ZM126.531 47V2.2H145.731C146.968 2.2 148.035 2.648 148.931 3.544C149.869 4.44 150.339 5.528 150.339 6.808V20.568C150.339 21.848 149.869 22.936 148.931 23.832C148.035 24.728 146.968 25.176 145.731 25.176H132.483V47H126.531ZM132.483 19.224H142.083C142.723 19.224 143.256 19.0107 143.683 18.584C144.152 18.1147 144.387 17.56 144.387 16.92V10.392C144.387 9.79467 144.152 9.28267 143.683 8.856C143.256 8.38666 142.723 8.152 142.083 8.152H132.483V19.224ZM149.346 47.064L158.37 2.264H164.194L173.09 47.064H167.138L165.41 38.68H156.898L155.298 47.064H149.346ZM158.05 32.792H164.385L161.314 16.856L158.05 32.792ZM176.531 47V2.2H182.483L194.387 32.088V2.2H200.339V47H194.387L182.483 17.112V47H176.531ZM205.718 47V2.2H211.67V19.224H223.574V2.2H229.462V47H223.574V25.176H211.67V47H205.718ZM232.908 47.064L241.932 2.264H247.756L256.652 47.064H250.7L248.972 38.68H240.46L238.86 47.064H232.908ZM241.612 32.792H247.948L244.876 16.856L241.612 32.792ZM260.093 47V2.2H266.045L277.949 32.088V2.2H283.901V47H277.949L266.045 17.112V47H260.093ZM296.671 47V8.152H287.775V2.2H311.519V8.152H302.623V47H296.671ZM315.406 47V2.2H339.214V8.088H321.358V19.224H333.262L331.918 25.176H321.358V41.048H339.214V47H315.406ZM347.698 47C346.418 47 345.33 46.552 344.434 45.656C343.538 44.76 343.09 43.672 343.09 42.392V32.472L349.042 33.816V38.744C349.042 39.384 349.255 39.9387 349.682 40.408C350.151 40.8347 350.685 41.048 351.282 41.048H358.578C359.218 41.048 359.751 40.8347 360.178 40.408C360.647 39.9387 360.882 39.384 360.882 38.744V27.48C360.882 26.84 360.647 26.3067 360.178 25.88C359.751 25.4107 359.218 25.176 358.578 25.176H347.698C346.418 25.176 345.33 24.728 344.434 23.832C343.538 22.936 343.09 21.848 343.09 20.568V6.808C343.09 5.528 343.538 4.44 344.434 3.544C345.33 2.648 346.418 2.2 347.698 2.2H362.226C363.506 2.2 364.594 2.648 365.49 3.544C366.386 4.44 366.834 5.528 366.834 6.808V13.72L360.882 12.312V10.456C360.882 9.816 360.647 9.28267 360.178 8.856C359.751 8.38666 359.218 8.152 358.578 8.152H351.282C350.685 8.152 350.151 8.38666 349.682 8.856C349.255 9.28267 349.042 9.816 349.042 10.456V16.92C349.042 17.56 349.255 18.1147 349.682 18.584C350.151 19.0107 350.685 19.224 351.282 19.224H362.226C363.506 19.224 364.594 19.672 365.49 20.568C366.386 21.464 366.834 22.552 366.834 23.832V42.392C366.834 43.672 366.386 44.76 365.49 45.656C364.594 46.552 363.506 47 362.226 47H347.698Z" fill="#0F1636"/>
<path d="M375.188 43.9688C375.188 42.9688 375.479 42.1354 376.062 41.4688C376.667 40.8021 377.562 40.4688 378.75 40.4688C379.938 40.4688 380.833 40.8021 381.438 41.4688C382.062 42.1354 382.375 42.9688 382.375 43.9688C382.375 44.9271 382.062 45.7292 381.438 46.375C380.833 47.0208 379.938 47.3438 378.75 47.3438C377.562 47.3438 376.667 47.0208 376.062 46.375C375.479 45.7292 375.188 44.9271 375.188 43.9688Z" fill="black"/>
<path d="M400.594 1.5L415.469 38.625L430.344 1.5H438.125V47H432.125V29.2812L432.688 10.1562L417.75 47H413.156L398.25 10.25L398.844 29.2812V47H392.844V1.5H400.594ZM474.438 25.9688H454.719V42.0938H477.625V47H448.719V1.5H477.312V6.4375H454.719V21.0625H474.438V25.9688Z" fill="#F9057C"/>
<path d="M5.408 47.064L4.42769 46.8665L4.18649 48.064H5.408V47.064ZM14.432 2.264V1.264H13.6133L13.4517 2.06653L14.432 2.264ZM20.256 2.264L21.2368 2.06923L21.077 1.264H20.256V2.264ZM29.152 47.064V48.064H30.3701L30.1328 46.8692L29.152 47.064ZM23.2 47.064L22.2206 47.2659L22.3851 48.064H23.2V47.064ZM21.472 38.68L22.4514 38.4781L22.2869 37.68H21.472V38.68ZM12.96 38.68V37.68H12.1328L11.9777 38.4925L12.96 38.68ZM11.36 47.064V48.064H12.1872L12.3423 47.2515L11.36 47.064ZM14.112 32.792L13.1323 32.5913L12.8864 33.792H14.112V32.792ZM20.448 32.792V33.792H21.6592L21.4299 32.6027L20.448 32.792ZM17.376 16.856L18.3579 16.6667L16.3963 16.6553L17.376 16.856ZM6.38831 47.2615L15.4123 2.46146L13.4517 2.06653L4.42769 46.8665L6.38831 47.2615ZM14.432 3.264H20.256V1.264H14.432V3.264ZM19.2752 2.45876L28.1712 47.2588L30.1328 46.8692L21.2368 2.06923L19.2752 2.45876ZM29.152 46.064H23.2V48.064H29.152V46.064ZM24.1794 46.8621L22.4514 38.4781L20.4926 38.8819L22.2206 47.2659L24.1794 46.8621ZM21.472 37.68H12.96V39.68H21.472V37.68ZM11.9777 38.4925L10.3777 46.8765L12.3423 47.2515L13.9423 38.8675L11.9777 38.4925ZM11.36 46.064H5.408V48.064H11.36V46.064ZM14.112 33.792H20.448V31.792H14.112V33.792ZM21.4299 32.6027L18.3579 16.6667L16.3941 17.0453L19.4661 32.9813L21.4299 32.6027ZM16.3963 16.6553L13.1323 32.5913L15.0917 32.9927L18.3557 17.0567L16.3963 16.6553ZM36.5635 45.656L37.254 44.9326L37.254 44.9326L36.5635 45.656ZM36.5635 3.608L37.254 4.33135L37.2624 4.32333L37.2706 4.3151L36.5635 3.608ZM57.5555 3.608L56.8156 4.28067L56.8316 4.29828L56.8484 4.3151L57.5555 3.608ZM58.8995 15.128L59.1198 16.1034L59.8995 15.9274V15.128H58.8995ZM52.9475 16.472H51.9475V17.723L53.1678 17.4474L52.9475 16.472ZM52.3075 8.856L51.5335 9.48924L51.55 9.5094L51.5676 9.52867L52.3075 8.856ZM41.8115 8.856L42.5186 9.56311L42.5186 9.5631L41.8115 8.856ZM41.8115 40.408L42.4842 39.6681L42.4842 39.6681L41.8115 40.408ZM52.3075 40.408L51.6004 39.7009L51.5818 39.7195L51.5642 39.739L52.3075 40.408ZM52.9475 34.072L52.7173 33.0989L51.9475 33.281V34.072H52.9475ZM58.8995 32.664H59.8995V31.3998L58.6693 31.6909L58.8995 32.664ZM57.5555 45.656L56.8484 44.9489L56.8398 44.9575L56.8314 44.9663L57.5555 45.656ZM39.7635 46C38.8493 46 38.0242 45.6678 37.254 44.9326L35.873 46.3794C36.9802 47.4362 38.2884 48 39.7635 48V46ZM37.254 44.9326C36.5099 44.2224 36.1555 43.3945 36.1555 42.392H34.1555C34.1555 43.9495 34.7398 45.2976 35.873 46.3794L37.254 44.9326ZM36.1555 42.392V6.808H34.1555V42.392H36.1555ZM36.1555 6.808C36.1555 5.85854 36.5022 5.04898 37.254 4.33135L35.873 2.88464C34.7475 3.95902 34.1555 5.28279 34.1555 6.808H36.1555ZM37.2706 4.3151C38.0446 3.54113 38.8647 3.2 39.7635 3.2V1.2C38.273 1.2 36.9598 1.79753 35.8564 2.90089L37.2706 4.3151ZM39.7635 3.2H54.2915V1.2H39.7635V3.2ZM54.2915 3.2C55.346 3.2 56.1607 3.56034 56.8156 4.28067L58.2954 2.93533C57.2436 1.77833 55.8823 1.2 54.2915 1.2V3.2ZM56.8484 4.3151C57.5619 5.02863 57.8995 5.84295 57.8995 6.808H59.8995C59.8995 5.29838 59.3411 3.97937 58.2626 2.90089L56.8484 4.3151ZM57.8995 6.808V15.128H59.8995V6.808H57.8995ZM58.6792 14.1526L52.7272 15.4966L53.1678 17.4474L59.1198 16.1034L58.6792 14.1526ZM53.9475 16.472V10.456H51.9475V16.472H53.9475ZM53.9475 10.456C53.9475 9.59357 53.6301 8.82428 53.0474 8.18333L51.5676 9.52867C51.8382 9.82638 51.9475 10.1238 51.9475 10.456H53.9475ZM53.0815 8.22276C52.4821 7.49024 51.6475 7.152 50.7075 7.152V9.152C51.1328 9.152 51.3649 9.28309 51.5335 9.48924L53.0815 8.22276ZM50.7075 7.152H43.4115V9.152H50.7075V7.152ZM43.4115 7.152C42.5183 7.152 41.7384 7.51486 41.1044 8.14889L42.5186 9.5631C42.8232 9.25847 43.11 9.152 43.4115 9.152V7.152ZM41.1044 8.14889C40.4704 8.78292 40.1075 9.56281 40.1075 10.456H42.1075C42.1075 10.1545 42.214 9.86774 42.5186 9.56311L41.1044 8.14889ZM40.1075 10.456V38.744H42.1075V10.456H40.1075ZM40.1075 38.744C40.1075 39.6843 40.4438 40.5161 41.1388 41.1479L42.4842 39.6681C42.2405 39.4466 42.1075 39.169 42.1075 38.744H40.1075ZM41.1388 41.1479C41.7798 41.7306 42.5491 42.048 43.4115 42.048V40.048C43.0793 40.048 42.7819 39.9387 42.4842 39.6681L41.1388 41.1479ZM43.4115 42.048H50.7075V40.048H43.4115V42.048ZM50.7075 42.048C51.6151 42.048 52.4412 41.7543 53.0508 41.077L51.5642 39.739C51.4058 39.9151 51.1653 40.048 50.7075 40.048V42.048ZM53.0146 41.1151C53.6541 40.4757 53.9475 39.6539 53.9475 38.744H51.9475C51.9475 39.1994 51.8143 39.487 51.6004 39.7009L53.0146 41.1151ZM53.9475 38.744V34.072H51.9475V38.744H53.9475ZM53.1777 35.0451L59.1297 33.6371L58.6693 31.6909L52.7173 33.0989L53.1777 35.0451ZM57.8995 32.664V42.392H59.8995V32.664H57.8995ZM57.8995 42.392C57.8995 43.4098 57.5547 44.2426 56.8484 44.9489L58.2626 46.3631C59.3483 45.2774 59.8995 43.9342 59.8995 42.392H57.8995ZM56.8314 44.9663C56.1808 45.6494 55.3616 46 54.2915 46V48C55.8668 48 57.2235 47.4546 58.2796 46.3457L56.8314 44.9663ZM54.2915 46H39.7635V48H54.2915V46ZM64.3745 45.656L65.0816 44.9489L65.0816 44.9489L64.3745 45.656ZM64.3745 3.544L65.0816 4.25111L65.0816 4.2511L64.3745 3.544ZM85.3665 3.544L84.6424 4.23365L84.6508 4.24248L84.6594 4.25111L85.3665 3.544ZM85.3665 45.656L84.6594 44.9489L84.6508 44.9575L84.6424 44.9663L85.3665 45.656ZM80.1185 40.408L79.4114 39.7009L79.3946 39.7177L79.3786 39.7353L80.1185 40.408ZM80.1185 8.792L79.3786 9.46467L79.4106 9.49991L79.4458 9.53194L80.1185 8.792ZM69.5585 8.792L70.2656 9.49911L70.2656 9.49911L69.5585 8.792ZM69.5585 40.408L68.8186 41.0807L68.8346 41.0983L68.8514 41.1151L69.5585 40.408ZM67.5105 46C66.5984 46 65.8027 45.67 65.0816 44.9489L63.6674 46.3631C64.7383 47.434 66.0333 48 67.5105 48V46ZM65.0816 44.9489C64.3821 44.2494 64.0305 43.3984 64.0305 42.328H62.0305C62.0305 43.9029 62.5749 45.2706 63.6674 46.3631L65.0816 44.9489ZM64.0305 42.328V6.872H62.0305V42.328H64.0305ZM64.0305 6.872C64.0305 5.80159 64.3821 4.9506 65.0816 4.25111L63.6674 2.83689C62.5749 3.92939 62.0305 5.29707 62.0305 6.872H64.0305ZM65.0816 4.2511C65.8027 3.53001 66.5984 3.2 67.5105 3.2V1.2C66.0333 1.2 64.7383 1.76598 63.6674 2.83689L65.0816 4.2511ZM67.5105 3.2H82.0385V1.2H67.5105V3.2ZM82.0385 3.2C83.1615 3.2 83.9983 3.55742 84.6424 4.23365L86.0906 2.85434C85.028 1.73857 83.6462 1.2 82.0385 1.2V3.2ZM84.6594 4.25111C85.3589 4.9506 85.7105 5.80159 85.7105 6.872H87.7105C87.7105 5.29707 87.1661 3.92939 86.0736 2.83689L84.6594 4.25111ZM85.7105 6.872V42.328H87.7105V6.872H85.7105ZM85.7105 42.328C85.7105 43.3984 85.3589 44.2494 84.6594 44.9489L86.0736 46.3631C87.1661 45.2706 87.7105 43.9029 87.7105 42.328H85.7105ZM84.6424 44.9663C83.9983 45.6426 83.1615 46 82.0385 46V48C83.6462 48 85.028 47.4614 86.0906 46.3457L84.6424 44.9663ZM82.0385 46H67.5105V48H82.0385V46ZM71.1585 42.112H78.3905V40.112H71.1585V42.112ZM78.3905 42.112C79.353 42.112 80.2142 41.7894 80.8584 41.0807L79.3786 39.7353C79.1695 39.9653 78.8787 40.112 78.3905 40.112V42.112ZM80.8256 41.1151C81.4884 40.4523 81.8225 39.6194 81.8225 38.68H79.8225C79.8225 39.1059 79.6873 39.425 79.4114 39.7009L80.8256 41.1151ZM81.8225 38.68V10.52H79.8225V38.68H81.8225ZM81.8225 10.52C81.8225 9.55754 81.4999 8.69632 80.7912 8.05206L79.4458 9.53194C79.6758 9.74102 79.8225 10.0318 79.8225 10.52H81.8225ZM80.8584 8.11933C80.2142 7.41064 79.353 7.088 78.3905 7.088V9.088C78.8787 9.088 79.1695 9.23469 79.3786 9.46467L80.8584 8.11933ZM78.3905 7.088H71.1585V9.088H78.3905V7.088ZM71.1585 7.088C70.2653 7.088 69.4854 7.45086 68.8514 8.08489L70.2656 9.49911C70.5702 9.19447 70.857 9.088 71.1585 9.088V7.088ZM68.8514 8.08489C68.2002 8.73608 67.9185 9.58678 67.9185 10.52H69.9185C69.9185 10.0025 70.0635 9.70125 70.2656 9.49911L68.8514 8.08489ZM67.9185 10.52V38.68H69.9185V10.52H67.9185ZM67.9185 38.68C67.9185 39.5908 68.2112 40.4125 68.8186 41.0807L70.2984 39.7353C70.0525 39.4648 69.9185 39.1346 69.9185 38.68H67.9185ZM68.8514 41.1151C69.4854 41.7491 70.2653 42.112 71.1585 42.112V40.112C70.857 40.112 70.5702 40.0055 70.2656 39.7009L68.8514 41.1151ZM91.468 47H90.468V48H91.468V47ZM91.468 2.2V1.2H90.468V2.2H91.468ZM97.42 2.2L98.3709 1.89046L98.1461 1.2H97.42V2.2ZM106.316 29.528L105.365 29.8375L106.316 32.7586L107.267 29.8375L106.316 29.528ZM115.212 2.2V1.2H114.486L114.261 1.89046L115.212 2.2ZM121.164 2.2H122.164V1.2H121.164V2.2ZM121.164 47V48H122.164V47H121.164ZM115.212 47H114.212V48H115.212V47ZM115.212 20.376H116.212L114.261 20.0658L115.212 20.376ZM109.26 38.616V39.616H109.986L110.211 38.9262L109.26 38.616ZM103.372 38.616L102.421 38.9262L102.646 39.616H103.372V38.616ZM97.42 20.376L98.3707 20.0658L96.42 20.376H97.42ZM97.42 47V48H98.42V47H97.42ZM92.468 47V2.2H90.468V47H92.468ZM91.468 3.2H97.42V1.2H91.468V3.2ZM96.4691 2.50954L105.365 29.8375L107.267 29.2185L98.3709 1.89046L96.4691 2.50954ZM107.267 29.8375L116.163 2.50954L114.261 1.89046L105.365 29.2185L107.267 29.8375ZM115.212 3.2H121.164V1.2H115.212V3.2ZM120.164 2.2V47H122.164V2.2H120.164ZM121.164 46H115.212V48H121.164V46ZM116.212 47V20.376H114.212V47H116.212ZM114.261 20.0658L108.309 38.3058L110.211 38.9262L116.163 20.6862L114.261 20.0658ZM109.26 37.616H103.372V39.616H109.26V37.616ZM104.323 38.3058L98.3707 20.0658L96.4693 20.6862L102.421 38.9262L104.323 38.3058ZM96.42 20.376V47H98.42V20.376H96.42ZM97.42 46H91.468V48H97.42V46ZM126.531 47H125.531V48H126.531V47ZM126.531 2.2V1.2H125.531V2.2H126.531ZM148.931 3.544L148.223 4.2511L148.232 4.25933L148.24 4.26735L148.931 3.544ZM148.931 23.832L148.24 23.1086L148.232 23.1167L148.223 23.1249L148.931 23.832ZM132.483 25.176V24.176H131.483V25.176H132.483ZM132.483 47V48H133.483V47H132.483ZM132.483 19.224H131.483V20.224H132.483V19.224ZM143.683 18.584L142.975 17.8769L142.975 17.8769L143.683 18.584ZM143.683 8.856L142.943 9.52867L142.975 9.56391L143.01 9.59594L143.683 8.856ZM132.483 8.152V7.152H131.483V8.152H132.483ZM127.531 47V2.2H125.531V47H127.531ZM126.531 3.2H145.731V1.2H126.531V3.2ZM145.731 3.2C146.696 3.2 147.51 3.53758 148.223 4.2511L149.638 2.83689C148.559 1.75841 147.24 1.2 145.731 1.2V3.2ZM148.24 4.26735C148.984 4.9776 149.339 5.80552 149.339 6.808H151.339C151.339 5.25048 150.754 3.90239 149.621 2.82064L148.24 4.26735ZM149.339 6.808V20.568H151.339V6.808H149.339ZM149.339 20.568C149.339 21.5705 148.984 22.3984 148.24 23.1086L149.621 24.5554C150.754 23.4736 151.339 22.1255 151.339 20.568H149.339ZM148.223 23.1249C147.51 23.8384 146.696 24.176 145.731 24.176V26.176C147.24 26.176 148.559 25.6176 149.638 24.5391L148.223 23.1249ZM145.731 24.176H132.483V26.176H145.731V24.176ZM131.483 25.176V47H133.483V25.176H131.483ZM132.483 46H126.531V48H132.483V46ZM132.483 20.224H142.083V18.224H132.483V20.224ZM142.083 20.224C142.97 20.224 143.763 19.9176 144.39 19.2911L142.975 17.8769C142.749 18.1038 142.475 18.224 142.083 18.224V20.224ZM144.39 19.2911C145.039 18.642 145.387 17.836 145.387 16.92H143.387C143.387 17.284 143.265 17.5873 142.975 17.8769L144.39 19.2911ZM145.387 16.92V10.392H143.387V16.92H145.387ZM145.387 10.392C145.387 9.49386 145.018 8.71904 144.355 8.11606L143.01 9.59594C143.285 9.84629 143.387 10.0955 143.387 10.392H145.387ZM144.422 8.18333C143.804 7.50338 143.001 7.152 142.083 7.152V9.152C142.444 9.152 142.707 9.26995 142.943 9.52867L144.422 8.18333ZM142.083 7.152H132.483V9.152H142.083V7.152ZM131.483 8.152V19.224H133.483V8.152H131.483ZM149.346 47.064L148.365 46.8665L148.124 48.064H149.346V47.064ZM158.37 2.264V1.264H157.551L157.389 2.06653L158.37 2.264ZM164.194 2.264L165.174 2.06923L165.014 1.264H164.194V2.264ZM173.09 47.064V48.064H174.308L174.07 46.8692L173.09 47.064ZM167.138 47.064L166.158 47.2659L166.323 48.064H167.138V47.064ZM165.41 38.68L166.389 38.4781L166.224 37.68H165.41V38.68ZM156.898 38.68V37.68H156.07L155.915 38.4925L156.898 38.68ZM155.298 47.064V48.064H156.125L156.28 47.2515L155.298 47.064ZM158.05 32.792L157.07 32.5913L156.824 33.792H158.05V32.792ZM164.385 32.792V33.792H165.597L165.367 32.6027L164.385 32.792ZM161.314 16.856L162.295 16.6667L160.334 16.6553L161.314 16.856ZM150.326 47.2615L159.35 2.46146L157.389 2.06653L148.365 46.8665L150.326 47.2615ZM158.37 3.264H164.194V1.264H158.37V3.264ZM163.213 2.45876L172.109 47.2588L174.07 46.8692L165.174 2.06923L163.213 2.45876ZM173.09 46.064H167.138V48.064H173.09V46.064ZM168.117 46.8621L166.389 38.4781L164.43 38.8819L166.158 47.2659L168.117 46.8621ZM165.41 37.68H156.898V39.68H165.41V37.68ZM155.915 38.4925L154.315 46.8765L156.28 47.2515L157.88 38.8675L155.915 38.4925ZM155.298 46.064H149.346V48.064H155.298V46.064ZM158.05 33.792H164.385V31.792H158.05V33.792ZM165.367 32.6027L162.295 16.6667L160.332 17.0453L163.404 32.9813L165.367 32.6027ZM160.334 16.6553L157.07 32.5913L159.029 32.9927L162.293 17.0567L160.334 16.6553ZM176.531 47H175.531V48H176.531V47ZM176.531 2.2V1.2H175.531V2.2H176.531ZM182.483 2.2L183.412 1.82998L183.161 1.2H182.483V2.2ZM194.387 32.088L193.457 32.458L195.387 32.088H194.387ZM194.387 2.2V1.2H193.387V2.2H194.387ZM200.339 2.2H201.339V1.2H200.339V2.2ZM200.339 47V48H201.339V47H200.339ZM194.387 47L193.457 47.37L193.708 48H194.387V47ZM182.483 17.112L183.412 16.742L181.483 17.112H182.483ZM182.483 47V48H183.483V47H182.483ZM177.531 47V2.2H175.531V47H177.531ZM176.531 3.2H182.483V1.2H176.531V3.2ZM181.553 2.57002L193.457 32.458L195.316 31.718L183.412 1.82998L181.553 2.57002ZM195.387 32.088V2.2H193.387V32.088H195.387ZM194.387 3.2H200.339V1.2H194.387V3.2ZM199.339 2.2V47H201.339V2.2H199.339ZM200.339 46H194.387V48H200.339V46ZM195.316 46.63L183.412 16.742L181.553 17.482L193.457 47.37L195.316 46.63ZM181.483 17.112V47H183.483V17.112H181.483ZM182.483 46H176.531V48H182.483V46ZM205.718 47H204.718V48H205.718V47ZM205.718 2.2V1.2H204.718V2.2H205.718ZM211.67 2.2H212.67V1.2H211.67V2.2ZM211.67 19.224H210.67V20.224H211.67V19.224ZM223.574 19.224V20.224H224.574V19.224H223.574ZM223.574 2.2V1.2H222.574V2.2H223.574ZM229.462 2.2H230.462V1.2H229.462V2.2ZM229.462 47V48H230.462V47H229.462ZM223.574 47H222.574V48H223.574V47ZM223.574 25.176H224.574V24.176H223.574V25.176ZM211.67 25.176V24.176H210.67V25.176H211.67ZM211.67 47V48H212.67V47H211.67ZM206.718 47V2.2H204.718V47H206.718ZM205.718 3.2H211.67V1.2H205.718V3.2ZM210.67 2.2V19.224H212.67V2.2H210.67ZM211.67 20.224H223.574V18.224H211.67V20.224ZM224.574 19.224V2.2H222.574V19.224H224.574ZM223.574 3.2H229.462V1.2H223.574V3.2ZM228.462 2.2V47H230.462V2.2H228.462ZM229.462 46H223.574V48H229.462V46ZM224.574 47V25.176H222.574V47H224.574ZM223.574 24.176H211.67V26.176H223.574V24.176ZM210.67 25.176V47H212.67V25.176H210.67ZM211.67 46H205.718V48H211.67V46ZM232.908 47.064L231.928 46.8665L231.686 48.064H232.908V47.064ZM241.932 2.264V1.264H241.113L240.952 2.06653L241.932 2.264ZM247.756 2.264L248.737 2.06923L248.577 1.264H247.756V2.264ZM256.652 47.064V48.064H257.87L257.633 46.8692L256.652 47.064ZM250.7 47.064L249.721 47.2659L249.885 48.064H250.7V47.064ZM248.972 38.68L249.951 38.4781L249.787 37.68H248.972V38.68ZM240.46 38.68V37.68H239.633L239.478 38.4925L240.46 38.68ZM238.86 47.064V48.064H239.687L239.842 47.2515L238.86 47.064ZM241.612 32.792L240.632 32.5913L240.386 33.792H241.612V32.792ZM247.948 32.792V33.792H249.159L248.93 32.6027L247.948 32.792ZM244.876 16.856L245.858 16.6667L243.896 16.6553L244.876 16.856ZM233.888 47.2615L242.912 2.46146L240.952 2.06653L231.928 46.8665L233.888 47.2615ZM241.932 3.264H247.756V1.264H241.932V3.264ZM246.775 2.45876L255.671 47.2588L257.633 46.8692L248.737 2.06923L246.775 2.45876ZM256.652 46.064H250.7V48.064H256.652V46.064ZM251.679 46.8621L249.951 38.4781L247.993 38.8819L249.721 47.2659L251.679 46.8621ZM248.972 37.68H240.46V39.68H248.972V37.68ZM239.478 38.4925L237.878 46.8765L239.842 47.2515L241.442 38.8675L239.478 38.4925ZM238.86 46.064H232.908V48.064H238.86V46.064ZM241.612 33.792H247.948V31.792H241.612V33.792ZM248.93 32.6027L245.858 16.6667L243.894 17.0453L246.966 32.9813L248.93 32.6027ZM243.896 16.6553L240.632 32.5913L242.592 32.9927L245.856 17.0567L243.896 16.6553ZM260.093 47H259.093V48H260.093V47ZM260.093 2.2V1.2H259.093V2.2H260.093ZM266.045 2.2L266.974 1.82998L266.723 1.2H266.045V2.2ZM277.949 32.088L277.02 32.458L278.949 32.088H277.949ZM277.949 2.2V1.2H276.949V2.2H277.949ZM283.901 2.2H284.901V1.2H283.901V2.2ZM283.901 47V48H284.901V47H283.901ZM277.949 47L277.02 47.37L277.271 48H277.949V47ZM266.045 17.112L266.974 16.742L265.045 17.112H266.045ZM266.045 47V48H267.045V47H266.045ZM261.093 47V2.2H259.093V47H261.093ZM260.093 3.2H266.045V1.2H260.093V3.2ZM265.116 2.57002L277.02 32.458L278.878 31.718L266.974 1.82998L265.116 2.57002ZM278.949 32.088V2.2H276.949V32.088H278.949ZM277.949 3.2H283.901V1.2H277.949V3.2ZM282.901 2.2V47H284.901V2.2H282.901ZM283.901 46H277.949V48H283.901V46ZM278.878 46.63L266.974 16.742L265.116 17.482L277.02 47.37L278.878 46.63ZM265.045 17.112V47H267.045V17.112H265.045ZM266.045 46H260.093V48H266.045V46ZM296.671 47H295.671V48H296.671V47ZM296.671 8.152H297.671V7.152H296.671V8.152ZM287.775 8.152H286.775V9.152H287.775V8.152ZM287.775 2.2V1.2H286.775V2.2H287.775ZM311.519 2.2H312.519V1.2H311.519V2.2ZM311.519 8.152V9.152H312.519V8.152H311.519ZM302.623 8.152V7.152H301.623V8.152H302.623ZM302.623 47V48H303.623V47H302.623ZM297.671 47V8.152H295.671V47H297.671ZM296.671 7.152H287.775V9.152H296.671V7.152ZM288.775 8.152V2.2H286.775V8.152H288.775ZM287.775 3.2H311.519V1.2H287.775V3.2ZM310.519 2.2V8.152H312.519V2.2H310.519ZM311.519 7.152H302.623V9.152H311.519V7.152ZM301.623 8.152V47H303.623V8.152H301.623ZM302.623 46H296.671V48H302.623V46ZM315.406 47H314.406V48H315.406V47ZM315.406 2.2V1.2H314.406V2.2H315.406ZM339.214 2.2H340.214V1.2H339.214V2.2ZM339.214 8.088V9.088H340.214V8.088H339.214ZM321.358 8.088V7.088H320.358V8.088H321.358ZM321.358 19.224H320.358V20.224H321.358V19.224ZM333.262 19.224L334.237 19.4443L334.512 18.224H333.262V19.224ZM331.918 25.176V26.176H332.717L332.893 25.3963L331.918 25.176ZM321.358 25.176V24.176H320.358V25.176H321.358ZM321.358 41.048H320.358V42.048H321.358V41.048ZM339.214 41.048H340.214V40.048H339.214V41.048ZM339.214 47V48H340.214V47H339.214ZM316.406 47V2.2H314.406V47H316.406ZM315.406 3.2H339.214V1.2H315.406V3.2ZM338.214 2.2V8.088H340.214V2.2H338.214ZM339.214 7.088H321.358V9.088H339.214V7.088ZM320.358 8.088V19.224H322.358V8.088H320.358ZM321.358 20.224H333.262V18.224H321.358V20.224ZM332.286 19.0037L330.942 24.9557L332.893 25.3963L334.237 19.4443L332.286 19.0037ZM331.918 24.176H321.358V26.176H331.918V24.176ZM320.358 25.176V41.048H322.358V25.176H320.358ZM321.358 42.048H339.214V40.048H321.358V42.048ZM338.214 41.048V47H340.214V41.048H338.214ZM339.214 46H315.406V48H339.214V46ZM344.434 45.656L343.727 46.3631L343.727 46.3631L344.434 45.656ZM343.09 32.472L343.31 31.4966L342.09 31.221V32.472H343.09ZM349.042 33.816H350.042V33.0166L349.262 32.8406L349.042 33.816ZM349.682 40.408L348.942 41.0807L348.974 41.1159L349.009 41.1479L349.682 40.408ZM360.178 40.408L360.885 41.1151L360.885 41.1151L360.178 40.408ZM360.178 25.88L359.438 26.5527L359.47 26.5879L359.505 26.6199L360.178 25.88ZM344.434 23.832L343.727 24.5391L343.727 24.5391L344.434 23.832ZM344.434 3.544L345.141 4.25111L345.141 4.25111L344.434 3.544ZM365.49 3.544L364.783 4.2511L364.783 4.25111L365.49 3.544ZM366.834 13.72L366.604 14.6931L367.834 14.9842V13.72H366.834ZM360.882 12.312H359.882V13.103L360.652 13.2851L360.882 12.312ZM360.178 8.856L359.438 9.52867L359.47 9.56391L359.505 9.59594L360.178 8.856ZM349.682 8.856L350.389 9.56311L350.389 9.5631L349.682 8.856ZM349.682 18.584L348.942 19.2567L348.974 19.2919L349.009 19.3239L349.682 18.584ZM347.698 46C346.68 46 345.847 45.6552 345.141 44.9489L343.727 46.3631C344.813 47.4488 346.156 48 347.698 48V46ZM345.141 44.9489C344.435 44.2426 344.09 43.4098 344.09 42.392H342.09C342.09 43.9342 342.641 45.2774 343.727 46.3631L345.141 44.9489ZM344.09 42.392V32.472H342.09V42.392H344.09ZM342.87 33.4474L348.822 34.7914L349.262 32.8406L343.31 31.4966L342.87 33.4474ZM348.042 33.816V38.744H350.042V33.816H348.042ZM348.042 38.744C348.042 39.6303 348.346 40.4254 348.942 41.0807L350.422 39.7353C350.164 39.4519 350.042 39.1377 350.042 38.744H348.042ZM349.009 41.1479C349.65 41.7306 350.42 42.048 351.282 42.048V40.048C350.95 40.048 350.652 39.9387 350.355 39.6681L349.009 41.1479ZM351.282 42.048H358.578V40.048H351.282V42.048ZM358.578 42.048C359.465 42.048 360.259 41.7416 360.885 41.1151L359.471 39.7009C359.244 39.9278 358.971 40.048 358.578 40.048V42.048ZM360.885 41.1151C361.534 40.466 361.882 39.66 361.882 38.744H359.882C359.882 39.108 359.76 39.4113 359.471 39.7009L360.885 41.1151ZM361.882 38.744V27.48H359.882V38.744H361.882ZM361.882 27.48C361.882 26.5612 361.531 25.7582 360.851 25.1401L359.505 26.6199C359.764 26.8551 359.882 27.1188 359.882 27.48H361.882ZM360.918 25.2073C360.3 24.5274 359.497 24.176 358.578 24.176V26.176C358.939 26.176 359.203 26.2939 359.438 26.5527L360.918 25.2073ZM358.578 24.176H347.698V26.176H358.578V24.176ZM347.698 24.176C346.68 24.176 345.847 23.8312 345.141 23.1249L343.727 24.5391C344.813 25.6248 346.156 26.176 347.698 26.176V24.176ZM345.141 23.1249C344.435 22.4186 344.09 21.5858 344.09 20.568H342.09C342.09 22.1102 342.641 23.4534 343.727 24.5391L345.141 23.1249ZM344.09 20.568V6.808H342.09V20.568H344.09ZM344.09 6.808C344.09 5.79019 344.435 4.95744 345.141 4.25111L343.727 2.83689C342.641 3.92256 342.09 5.26581 342.09 6.808H344.09ZM345.141 4.25111C345.847 3.54477 346.68 3.2 347.698 3.2V1.2C346.156 1.2 344.813 1.75123 343.727 2.83689L345.141 4.25111ZM347.698 3.2H362.226V1.2H347.698V3.2ZM362.226 3.2C363.244 3.2 364.077 3.54477 364.783 4.2511L366.197 2.83689C365.111 1.75123 363.768 1.2 362.226 1.2V3.2ZM364.783 4.25111C365.489 4.95744 365.834 5.79019 365.834 6.808H367.834C367.834 5.26581 367.283 3.92256 366.197 2.83689L364.783 4.25111ZM365.834 6.808V13.72H367.834V6.808H365.834ZM367.064 12.7469L361.112 11.3389L360.652 13.2851L366.604 14.6931L367.064 12.7469ZM361.882 12.312V10.456H359.882V12.312H361.882ZM361.882 10.456C361.882 9.53715 361.531 8.73419 360.851 8.11606L359.505 9.59594C359.764 9.83114 359.882 10.0948 359.882 10.456H361.882ZM360.918 8.18333C360.3 7.50338 359.497 7.152 358.578 7.152V9.152C358.939 9.152 359.203 9.26995 359.438 9.52867L360.918 8.18333ZM358.578 7.152H351.282V9.152H358.578V7.152ZM351.282 7.152C350.389 7.152 349.609 7.51486 348.975 8.14889L350.389 9.5631C350.694 9.25847 350.981 9.152 351.282 9.152V7.152ZM348.975 8.14889C348.348 8.77535 348.042 9.56864 348.042 10.456H350.042C350.042 10.0634 350.162 9.78998 350.389 9.56311L348.975 8.14889ZM348.042 10.456V16.92H350.042V10.456H348.042ZM348.042 16.92C348.042 17.8063 348.346 18.6014 348.942 19.2567L350.422 17.9113C350.164 17.6279 350.042 17.3137 350.042 16.92H348.042ZM349.009 19.3239C349.65 19.9066 350.42 20.224 351.282 20.224V18.224C350.95 18.224 350.652 18.1147 350.355 17.8441L349.009 19.3239ZM351.282 20.224H362.226V18.224H351.282V20.224ZM362.226 20.224C363.244 20.224 364.077 20.5688 364.783 21.2751L366.197 19.8609C365.111 18.7752 363.768 18.224 362.226 18.224V20.224ZM364.783 21.2751C365.489 21.9814 365.834 22.8142 365.834 23.832H367.834C367.834 22.2898 367.283 20.9466 366.197 19.8609L364.783 21.2751ZM365.834 23.832V42.392H367.834V23.832H365.834ZM365.834 42.392C365.834 43.4098 365.489 44.2426 364.783 44.9489L366.197 46.3631C367.283 45.2774 367.834 43.9342 367.834 42.392H365.834ZM364.783 44.9489C364.077 45.6552 363.244 46 362.226 46V48C363.768 48 365.111 47.4488 366.197 46.3631L364.783 44.9489ZM362.226 46H347.698V48H362.226V46ZM376.062 41.4688L375.322 40.7972L375.316 40.8037L375.31 40.8102L376.062 41.4688ZM381.438 41.4688L380.697 42.1403L380.702 42.1465L380.708 42.1527L381.438 41.4688ZM381.438 46.375L380.719 45.6796L380.713 45.6857L380.707 45.6918L381.438 46.375ZM376.062 46.375L375.32 47.0453L375.326 47.0518L375.332 47.0582L376.062 46.375ZM376.188 43.9688C376.188 43.1776 376.412 42.588 376.815 42.1273L375.31 40.8102C374.546 41.6828 374.188 42.7599 374.188 43.9688H376.188ZM376.803 42.1403C377.162 41.7442 377.75 41.4688 378.75 41.4688V39.4688C377.375 39.4688 376.171 39.86 375.322 40.7972L376.803 42.1403ZM378.75 41.4688C379.75 41.4688 380.338 41.7442 380.697 42.1403L382.178 40.7972C381.329 39.86 380.125 39.4688 378.75 39.4688V41.4688ZM380.708 42.1527C381.142 42.6158 381.375 43.1967 381.375 43.9688H383.375C383.375 42.7408 382.983 41.655 382.167 40.7848L380.708 42.1527ZM381.375 43.9688C381.375 44.6865 381.151 45.2335 380.719 45.6796L382.156 47.0704C382.974 46.2249 383.375 45.1676 383.375 43.9688H381.375ZM380.707 45.6918C380.35 46.0732 379.76 46.3438 378.75 46.3438V48.3438C380.115 48.3438 381.316 47.9684 382.168 47.0582L380.707 45.6918ZM378.75 46.3438C377.74 46.3438 377.15 46.0732 376.793 45.6918L375.332 47.0582C376.184 47.9684 377.385 48.3438 378.75 48.3438V46.3438ZM376.805 45.7047C376.405 45.2618 376.188 44.7065 376.188 43.9688H374.188C374.188 45.1476 374.554 46.1965 375.32 47.0453L376.805 45.7047ZM400.594 1.5L401.522 1.12807L401.27 0.5H400.594V1.5ZM415.469 38.625L414.54 38.9969L415.469 41.3137L416.397 38.9969L415.469 38.625ZM430.344 1.5V0.5H429.667L429.415 1.12807L430.344 1.5ZM438.125 1.5H439.125V0.5H438.125V1.5ZM438.125 47V48H439.125V47H438.125ZM432.125 47H431.125V48H432.125V47ZM432.125 29.2812L431.125 29.2519L431.125 29.2665V29.2812H432.125ZM432.688 10.1562L433.687 10.1856L431.761 9.78053L432.688 10.1562ZM417.75 47V48H418.424L418.677 47.3757L417.75 47ZM413.156 47L412.23 47.3759L412.483 48H413.156V47ZM398.25 10.25L399.177 9.87413L397.25 10.2812L398.25 10.25ZM398.844 29.2812H399.844V29.2657L399.843 29.2501L398.844 29.2812ZM398.844 47V48H399.844V47H398.844ZM392.844 47H391.844V48H392.844V47ZM392.844 1.5V0.5H391.844V1.5H392.844ZM399.665 1.87193L414.54 38.9969L416.397 38.2531L401.522 1.12807L399.665 1.87193ZM416.397 38.9969L431.272 1.87193L429.415 1.12807L414.54 38.2531L416.397 38.9969ZM430.344 2.5H438.125V0.5H430.344V2.5ZM437.125 1.5V47H439.125V1.5H437.125ZM438.125 46H432.125V48H438.125V46ZM433.125 47V29.2812H431.125V47H433.125ZM433.125 29.3106L433.687 10.1856L431.688 10.1269L431.125 29.2519L433.125 29.3106ZM431.761 9.78053L416.823 46.6243L418.677 47.3757L433.614 10.532L431.761 9.78053ZM417.75 46H413.156V48H417.75V46ZM414.083 46.6241L399.177 9.87413L397.323 10.6259L412.23 47.3759L414.083 46.6241ZM397.25 10.2812L397.844 29.3124L399.843 29.2501L399.25 10.2188L397.25 10.2812ZM397.844 29.2812V47H399.844V29.2812H397.844ZM398.844 46H392.844V48H398.844V46ZM393.844 47V1.5H391.844V47H393.844ZM392.844 2.5H400.594V0.5H392.844V2.5ZM474.438 25.9688V26.9688H475.438V25.9688H474.438ZM454.719 25.9688V24.9688H453.719V25.9688H454.719ZM454.719 42.0938H453.719V43.0938H454.719V42.0938ZM477.625 42.0938H478.625V41.0938H477.625V42.0938ZM477.625 47V48H478.625V47H477.625ZM448.719 47H447.719V48H448.719V47ZM448.719 1.5V0.5H447.719V1.5H448.719ZM477.312 1.5H478.312V0.5H477.312V1.5ZM477.312 6.4375V7.4375H478.312V6.4375H477.312ZM454.719 6.4375V5.4375H453.719V6.4375H454.719ZM454.719 21.0625H453.719V22.0625H454.719V21.0625ZM474.438 21.0625H475.438V20.0625H474.438V21.0625ZM474.438 24.9688H454.719V26.9688H474.438V24.9688ZM453.719 25.9688V42.0938H455.719V25.9688H453.719ZM454.719 43.0938H477.625V41.0938H454.719V43.0938ZM476.625 42.0938V47H478.625V42.0938H476.625ZM477.625 46H448.719V48H477.625V46ZM449.719 47V1.5H447.719V47H449.719ZM448.719 2.5H477.312V0.5H448.719V2.5ZM476.312 1.5V6.4375H478.312V1.5H476.312ZM477.312 5.4375H454.719V7.4375H477.312V5.4375ZM453.719 6.4375V21.0625H455.719V6.4375H453.719ZM454.719 22.0625H474.438V20.0625H454.719V22.0625ZM473.438 21.0625V25.9688H475.438V21.0625H473.438Z" fill="#F5F5F5" fill-opacity="0.25"/>
</g>
<defs>
<filter id="filter0_di" x="0.186493" y="0.5" width="482.439" height="55.8438" filterUnits="userSpaceOnUse" color-interpolation-filters="sRGB">
<feFlood flood-opacity="0" result="BackgroundImageFix"/>
<feColorMatrix in="SourceAlpha" type="matrix" values="0 0 0 0 0 0 0 0 0 0 0 0 0 0 0 0 0 0 127 0"/>
<feOffset dy="4"/>
<feGaussianBlur stdDeviation="2"/>
<feColorMatrix type="matrix" values="0 0 0 0 0 0 0 0 0 0 0 0 0 0 0 0 0 0 0.25 0"/>
<feBlend mode="normal" in2="BackgroundImageFix" result="effect1_dropShadow"/>
<feBlend mode="normal" in="SourceGraphic" in2="effect1_dropShadow" result="shape"/>
<feColorMatrix in="SourceAlpha" type="matrix" values="0 0 0 0 0 0 0 0 0 0 0 0 0 0 0 0 0 0 127 0" result="hardAlpha"/>
<feOffset dy="4"/>
<feGaussianBlur stdDeviation="2"/>
<feComposite in2="hardAlpha" operator="arithmetic" k2="-1" k3="1"/>
<feColorMatrix type="matrix" values="0 0 0 0 0 0 0 0 0 0 0 0 0 0 0 0 0 0 0.25 0"/>
<feBlend mode="normal" in2="shape" result="effect2_innerShadow"/>
</filter>
</defs>
</svg>
